<?xml version="1.0" standalone="no"?>
<!DOCTYPE svg PUBLIC "-//W3C//DTD SVG 1.1//EN" "http://www.w3.org/Graphics/SVG/1.1/DTD/svg11.dtd" >
<svg xmlns="http://www.w3.org/2000/svg">
<metadata></metadata>
<defs>
<font id="comic_reliefregular" horiz-adv-x="1250" >
<font-face units-per-em="2048" ascent="1638" descent="-410" />
<missing-glyph horiz-adv-x="612" />
<glyph horiz-adv-x="2048" />
<glyph horiz-adv-x="2048" />
<glyph unicode="&#xd;" horiz-adv-x="2048" />
<glyph unicode=" "  horiz-adv-x="612" />
<glyph unicode="&#x09;" horiz-adv-x="612" />
<glyph unicode="&#xa0;" horiz-adv-x="612" />
<glyph unicode="!" horiz-adv-x="487" d="M108 60q0 25 9 48q11 27 34 46q20 19 50 27q15 4 31 3q17 0 33 -4q31 -9 54 -32q27 -25 33 -55q3 -16 4 -33q0 -20 -3 -31q-10 -37 -37 -62q-28 -25 -67 -30q-8 -1 -17 -2q-29 0 -54 13q-34 16 -53 49q-17 29 -17 63zM153 1518v2q-1 88 85 86h4q89 0 89 -90l-1 -1122 q0 -80 -91 -80h-4q-81 -2 -81 86z" />
<glyph unicode="&#x22;" horiz-adv-x="869" d="M115 1024v6l14 447q4 111 84 111h4q88 -5 88 -99v-6l-13 -455q-3 -96 -84 -96h-2q-91 1 -91 92zM495 1020v6l14 447q4 111 84 111h4q88 -5 88 -99v-6l-13 -455q-3 -96 -84 -96h-2q-91 1 -91 92z" />
<glyph unicode="#" horiz-adv-x="1726" d="M28 498q2 75 136 75h202l123 419l-273 1q-94 0 -91 99q2 75 136 75h279l88 301q33 113 113 86q90 -30 52 -160l-67 -226h497l88 300q33 113 113 86q90 -30 52 -160l-67 -225h183q118 0 115 -84q-4 -95 -139 -95h-212l-123 -415h262q118 0 115 -84q-4 -95 -139 -95 q-145 0 -291 1l-88 -299q-27 -90 -121 -59q-71 23 -34 151l61 207l-500 1l-89 -300q-27 -90 -121 -59q-71 23 -34 151l61 209h-196q-94 0 -91 99zM550 574h500l121 417l-497 1z" />
<glyph unicode="$" horiz-adv-x="1420" d="M78 217q10 67 60 88q65 27 146 -60q61 -65 138 -94q82 -29 164 -31l-2 515q-346 5 -412 274q-38 155 50 308q64 111 240 194q57 27 120 43v184q0 76 90 77q86 1 86 -77l1 -161h13q157 0 341 -83q64 -29 64 -99q0 -41 -59 -66q-52 -20 -134 12q-125 49 -225 49v-463 q32 -2 63 -4q233 -24 315 -109q126 -130 117 -291q-14 -248 -261 -391q-101 -59 -234 -81l1 -198q0 -114 -88 -114q-84 1 -85 115q0 91 -1 182h-1q-180 -1 -299 49q-80 33 -136 82q-84 73 -72 150zM376 1045q-18 -179 144 -204l64 -4l-1 425q-60 -20 -103 -53 q-94 -73 -104 -164zM759 144q128 32 181 83q134 129 96 268q-32 115 -277 136v-487z" />
<glyph unicode="%" horiz-adv-x="1680" d="M155 1342q0 30 6 59q16 79 67 135q53 59 125 85q48 17 100 17q27 0 52 -5q81 -15 140 -65q61 -52 87 -125q18 -49 18 -102q0 -25 -5 -50q-14 -81 -67 -142q-53 -62 -130 -88q-46 -16 -96 -16q-31 0 -61 6q-80 17 -140 72q-58 53 -81 127q-14 44 -15 92zM302 1344 q0 -22 6 -43q14 -49 55 -79t91 -30h1q42 0 77 22q36 22 56 58q18 34 18 72v6q-2 44 -25 77q-15 24 -41 42q-25 17 -54 23q-15 4 -32 4q-45 0 -82 -24q-43 -27 -61 -75q-10 -26 -9 -53zM373 40l727 1542q31 65 106 27q69 -35 39 -100l-709 -1541q-38 -82 -119.5 -45.5 t-43.5 117.5zM941 304q0 34 7 66q18 89 75 151q59 67 140 96q54 19 112 19q30 0 59 -6q91 -16 156 -72q68 -59 97 -141q20 -55 20 -114q0 -28 -4 -56q-16 -91 -75 -159q-59 -69 -146 -99q-52 -18 -108 -18q-35 0 -68 7q-90 19 -157 80q-65 59 -92 143q-16 50 -16 103z M1105 306q0 -25 7 -48q16 -55 62 -89t102 -33h1q47 0 87 24t62 65q20 38 20 81v7q-2 49 -27 86q-17 27 -47 47q-27 19 -60 26q-17 4 -36 4q-51 0 -92 -27q-48 -31 -68 -84q-11 -29 -11 -59z" />
<glyph unicode="&#x26;" horiz-adv-x="1340" d="M122 184q-94 209 86 412l283 319l-63 99q-159 250 -66 404q102 169 357 154q210 -12 258 -190q44 -166 -114 -346l-132 -150l189 -304l110 142q68 87 150 28q83 -60 6 -156l-156 -193l224 -362q37 -76 -29 -117q-75 -46 -127 36l-187 295l-99 -123q-140 -173 -328 -170 q-264 5 -362 222zM314 312q25 -138 170 -148q105 -7 232 156l84 108l-197 311l-137 -155q-168 -191 -152 -272zM538 1312q-26 -72 34 -168l50 -81l108 121q89 100 56 152q-36 56 -112 52q-111 -6 -136 -76z" />
<glyph unicode="'" horiz-adv-x="795" d="M288 1551q-2 104 90 108q92 3 92 -106v-309q0 -103 -85 -103q-89 -1 -91 102z" />
<glyph unicode="(" horiz-adv-x="750" d="M112 630q10 269 126 536q82 194 198 318q160 168 230 94q76 -80 -106 -246q-148 -136 -212 -442q-54 -260 -22 -528q53 -442 252 -576q184 -124 78 -206q-74 -56 -234 90q-159 145 -226 352q-95 296 -84 608z" />
<glyph unicode=")" horiz-adv-x="750" d="M144 1578q70 74 230 -94q116 -124 198 -318q116 -267 126 -536q11 -312 -84 -608q-67 -207 -226 -352q-160 -146 -234 -90q-106 82 78 206q199 134 252 576q32 268 -22 528q-64 306 -212 442q-182 166 -106 246z" />
<glyph unicode="*" horiz-adv-x="1085" d="M74 1298q32 82 117 51l218 -80q0 118 -1 235q-1 91 91 89q88 -2 88 -93l-1 -229l210 76q98 35 127 -50q30 -81 -61 -114l-205 -76l157 -158q64 -65 -3 -128q-64 -60 -128 5l-188 193l-183 -186q-73 -74 -136 -10q-62 60 6 130l151 154l-207 75q-85 31 -52 116z" />
<glyph unicode="+" horiz-adv-x="984" d="M53 645q0 91 91 91l235 1q1 104 1 208q0 101 90 100q86 -1 86 -102v-206l210 1q100 0 100 -89q0 -86 -101 -87q-105 -1 -209 -2v-241q0 -90 -90 -88q-92 1 -90 92q1 117 2 235q-118 -1 -237 -2q-90 -1 -88 89z" />
<glyph unicode="," horiz-adv-x="567" d="M220 -216l116 292q38 96 122 52q70 -36 34 -113l-130 -281q-44 -97 -108 -69q-68 31 -34 119z" />
<glyph unicode="-" horiz-adv-x="853" d="M112 543q0 77 72 77l480 2q94 0 94 -76q0 -78 -89 -78l-491 1q-66 0 -66 74z" />
<glyph unicode="." horiz-adv-x="510" d="M143 31q0 32 16 60q17 29 43 47q28 18 62 18h4q34 0 63 -17q31 -18 47 -50q14 -27 14 -58v-10q-3 -36 -25 -65q-20 -26 -44 -37q-25 -13 -56 -12h-6q-31 1 -57 17q-27 16 -44 44q-17 29 -17 63z" />
<glyph unicode="/" horiz-adv-x="1048" d="M95 40l727 1542q31 65 106 27q69 -35 39 -100l-709 -1541q-38 -83 -119 -47q-82 36 -44 119z" />
<glyph unicode="0" d="M61 745q0 772 582 772q537 0 537 -757q0 -810 -564 -810q-555 0 -555 795zM259 748q0 -612 357 -612q360 0 360 627q0 565 -330 565q-387 0 -387 -580z" />
<glyph unicode="1" horiz-adv-x="922" d="M164 36q1 100 100 100h149l2 1061l-74 -70q-95 -91 -160 -3q-52 70 19 137l199 187q81 76 149 60q55 -12 54 -102l-6 -1271h109q103 0 103 -93q0 -90 -100 -90h-454q-90 0 -90 84z" />
<glyph unicode="2" d="M164 90q6 202 149 412q135 193 399 321q172 83 177 302q3 124 -113 183q-113 57 -234 18q-72 -24 -184 -154q-82 -94 -158 -30q-70 56 -14 124q115 141 197 189q106 63 269 63q153 0 244 -56q195 -122 190 -354q-7 -312 -257 -426q-228 -104 -348 -279 q-114 -166 -121 -263l634 -2q107 0 106 -92q-1 -96 -105 -95h-733q-103 0 -98 139z" />
<glyph unicode="3" d="M148 225q-3 93 78 102q43 4 144 -119q72 -88 276 -58q251 37 237 260q-15 256 -320 308q-164 14 -163 92q2 58 62 84q43 19 244 68q174 43 160 193q-15 162 -244 180q-103 8 -182 -48q-115 -82 -165 -76q-69 8 -74 78q-6 86 92 144q170 101 306 92q284 -18 375 -153 q155 -229 15 -435q-51 -75 -171 -121q32 -6 116 -60q181 -115 141 -421q-40 -301 -361 -367q-270 -55 -443 71q-120 88 -123 186z" />
<glyph unicode="4" d="M48 504q0 50 35 98l598 821q68 93 181 92q102 -1 102 -106v-797h80q141 0 144 -100q2 -98 -139 -98h-85v-358q0 -107 -92 -106q-96 1 -96 108q-1 178 -1 356l-633 -1q-94 0 -94 91zM349 610l425 1q0 284 2 626z" />
<glyph unicode="5" d="M142 754l61 688q14 58 84 58l706 4q107 1 108 -92q1 -100 -102 -100h-610l-40 -387q158 123 324 123q491 -1 483 -492q-11 -646 -655 -616q-238 11 -350 194q-52 85 -2 128q90 78 151 -1q102 -134 239 -134q389 -1 422 426q24 302 -288 300q-155 -1 -252 -105 q-129 -125 -207 -123q-83 3 -72 129z" />
<glyph unicode="6" d="M130 418q-18 468 180 757q143 209 374 327q119 61 160 -46q21 -62 -96 -135q-118 -74 -201 -159q-93 -96 -176 -278q69 67 269 67q468 1 468 -493q0 -507 -534 -511q-426 -4 -444 471zM314 437q0 -314 256 -314q346 0 346 326q0 300 -300 300q-302 0 -302 -312z" />
<glyph unicode="7" d="M72 1413q0 96 129 96l876 3q132 0 138 -90q2 -40 -15 -65q-2 -3 -4 -7l-704 -1326q-68 -129 -160 -73q-92 55 -33 165l643 1201h-744q-126 0 -126 96z" />
<glyph unicode="8" d="M123 346q0 350 249 446q-201 74 -201 320q0 402 450 402q432 0 432 -396q0 -236 -224 -317q296 -82 296 -409q0 -436 -519 -436q-483 0 -483 390zM318 364q21 -256 336 -241q261 12 262 269q2 229 -310 325q-306 -127 -288 -353zM369 1088q5 -164 231 -194 q257 54 253 227q-3 208 -226 210q-267 2 -258 -243z" />
<glyph unicode="9" d="M126 984q0 543 534 531q467 -11 465 -603q-1 -246 -65 -421q-146 -397 -642 -534q-121 -33 -152 57q-33 97 68 121q214 52 351 162q113 91 207 286q-90 -64 -303 -64q-463 0 -463 465zM309 985q1 -286 313 -273q338 14 315 283q-27 326 -282 336q-347 14 -346 -346z" />
<glyph unicode=":" horiz-adv-x="612" d="M171 31q0 32 16 60q17 29 43 47q28 18 62 18h4q34 0 63 -17q31 -18 47 -50q14 -27 14 -58v-10q-3 -36 -25 -65q-20 -26 -44 -37q-25 -13 -56 -12h-6q-31 1 -57 17q-27 16 -44 44q-17 29 -17 63zM175 990q0 32 16 60q17 29 43 47q28 18 62 18h4q34 0 63 -17q31 -18 47 -50 q14 -27 14 -58v-10q-3 -36 -25 -65q-20 -26 -44 -37q-25 -13 -56 -12h-6q-31 1 -57 17q-27 16 -44 44q-17 29 -17 63z" />
<glyph unicode=";" horiz-adv-x="612" d="M108 -216l116 292q38 96 122 52q70 -36 34 -113l-130 -281q-44 -97 -108 -69q-68 31 -34 119zM163 991q0 32 16 60q17 29 43 47q28 18 62 18h4q34 0 63 -17q31 -18 47 -50q14 -27 14 -58v-10q-3 -36 -25 -65q-20 -26 -44 -37q-25 -13 -56 -12h-6q-31 1 -57 17 q-27 16 -44 44q-17 29 -17 63z" />
<glyph unicode="&#x3c;" horiz-adv-x="781" d="M20 605q1 48 49 90l382 332q86 75 148 -3q52 -66 -35 -140l-313 -266l325 -270q67 -56 5 -126q-54 -61 -122 -6l-383 309q-56 45 -56 80z" />
<glyph unicode="=" horiz-adv-x="1045" d="M90 364q0 92 87 92l582 2q113 0 114 -90q0 -92 -108 -92l-596 1q-79 0 -79 87zM98 906q0 92 88 92l582 2q114 0 114 -90q0 -92 -109 -92l-596 1q-79 0 -79 87z" />
<glyph unicode="&#x3e;" horiz-adv-x="781" d="M137 1052q62 78 148 3l382 -332q48 -42 49 -90q0 -35 -56 -80l-383 -309q-68 -55 -122 6q-63 71 5 126l325 270l-313 266q-87 74 -35 140z" />
<glyph unicode="?" horiz-adv-x="1073" d="M116 1150q-92 72 10 189q118 133 378 138q346 7 392 -321q56 -386 -210 -459q-188 -51 -188 -135q-4 -199 -94 -204q-136 -7 -108 222q25 207 230 271q204 63 163 269q-27 135 -177 153q-138 17 -218 -54q-124 -111 -178 -69zM253 55q0 25 9 48q11 27 34 46q20 19 50 27 q15 4 31 3q17 0 33 -4q31 -9 54 -32q27 -25 33 -55q3 -16 4 -33q0 -20 -3 -31q-10 -37 -37 -62q-28 -25 -67 -30q-8 -1 -17 -2q-29 0 -54 13q-34 16 -53 49q-17 29 -17 63z" />
<glyph unicode="@" horiz-adv-x="1907" d="M114 761q0 48 4 95q14 152 74 291q60 143 160 243q130 133 312 204q85 33 267 33q37 0 73 -3q162 -13 276 -63q114 -49 216 -135q164 -136 228 -324q36 -104 35 -214q0 -111 -36 -212q-42 -118 -113 -214q-62 -84 -228 -114q-89 -16 -164 42q-19 15 -36 36 q-74 -65 -194 -80q-464 -59 -474 318q-12 472 448 531q75 10 132 -10q21 34 71 34q94 0 87 -73q-21 -269 26 -520q22 -37 82 -28q93 13 153 107q36 56 36 186q0 97 -32 179q-30 80 -98 156q-63 70 -149 116q-154 84 -343 84q-33 0 -65 -3q-182 -15 -302 -114 q-58 -48 -106 -117q-86 -127 -120 -297q-18 -90 -19 -178q-1 -74 13 -143q35 -185 154 -318q124 -138 300 -186q76 -20 155 -20q83 0 187 29q50 14 176 66q120 50 162 -35q46 -91 -63 -149q-117 -62 -333 -98q-16 -3 -150 -3q-106 0 -255 57q-119 46 -225 129 q-190 151 -282 399q-40 108 -40 316zM688 688q0 -168 165 -177q150 -8 235 83q-43 247 -29 400q-63 13 -128 5q-243 -25 -243 -311z" />
<glyph unicode="A" horiz-adv-x="1498" d="M152 122l445 1241q60 166 146 166q85 0 145 -166l446 -1241q16 -45 16 -79q0 -68 -66 -87q-16 -5 -31 -5q-73 0 -113 115l-157 435h-480l-157 -435q-40 -114 -114 -114q-15 0 -30 4q-66 19 -66 88q0 33 16 78zM576 704l333 2l-166 461z" />
<glyph unicode="B" horiz-adv-x="1291" d="M196 43l33 1392q2 93 93 93q23 0 41 -5q19 4 55 4q65 0 188 -12q371 -36 464 -301q24 -68 24 -135q0 -156 -130 -304q-21 -24 -51 -44q67 -20 95 -41q187 -140 187 -325q0 -74 -30 -155q-64 -168 -329 -233q-199 -49 -392 -49q-72 0 -143 7q-8 -1 -18 -1q-87 2 -87 102v7 zM394 124q43 -3 85 -4q58 0 113 7q112 14 237 59q140 51 159 153q3 20 3 38q0 99 -99 166q-91 60 -249 75q-92 8 -161 8q-43 0 -77 -3zM409 820q77 -8 140 -8q217 0 283 97q60 89 60 169q0 51 -24 98q-73 145 -307 152q-70 2 -140 3z" />
<glyph unicode="C" horiz-adv-x="1234" d="M77 649q0 369 134 560q196 276 414 311q58 9 113 10q142 0 262 -62q127 -65 131 -122v-13q0 -63 -35 -98q-40 -37 -81 -37q-32 0 -65 23q-69 47 -158 68q-38 9 -74 9q-91 0 -173 -54q-95 -63 -168 -188q-82 -141 -82 -383q0 -223 95 -369q76 -115 203 -121q22 -1 43 -1 q150 0 236 56q125 80 184 80q8 0 14 -1q84 -16 84 -119q0 -16 -2 -34q-8 -76 -201 -155q-144 -60 -308 -60q-17 0 -35 1q-242 8 -386 198q-146 192 -145 501z" />
<glyph unicode="D" horiz-adv-x="1478" d="M184 51l34 1385q2 89 92 89q24 0 44 -5q12 -1 24 -3q358 -41 631 -274q368 -314 368 -663q0 -21 -1 -41q-15 -271 -284 -487q-124 -100 -482 -105q-79 -1 -141 -1q-104 0 -162 3q-15 -3 -35 -3q-88 2 -88 99v6zM383 138l215 -3q330 8 431 120q136 151 145 294q1 13 1 26 q0 238 -292 506q-209 195 -474 209z" />
<glyph unicode="E" horiz-adv-x="1279" d="M165 63l33 1353q2 85 94 86q21 0 37 -3q11 2 23 2l694 4h2q142 0 142 -119q0 -88 -138 -88q-331 -2 -661 -4l-9 -358l553 3h2q142 0 142 -118q0 -87 -138 -89l-563 -3l-14 -562l620 3h2q142 0 142 -118q0 -88 -138 -89l-700 -4q-12 0 -22 2h-16q-87 2 -87 96v6z" />
<glyph unicode="F" horiz-adv-x="1243" d="M172 61l34 1353q2 85 92 87q21 0 38 -4q10 2 22 2l695 4h2q142 0 142 -118q0 -88 -138 -89q-331 -2 -661 -4l-9 -357l553 3h2q142 0 142 -119q0 -87 -138 -88l-563 -3l-16 -669q-1 -100 -105 -100h-4q-90 2 -88 102z" />
<glyph unicode="G" horiz-adv-x="1392" d="M77 650q0 368 152 592q150 222 396 266q76 13 143 13q158 0 274 -69q166 -100 192 -190q8 -27 8 -50q0 -54 -44 -85q-19 -14 -42 -14q-58 0 -138 87q-91 97 -252 104h-13q-92 0 -197 -54q-120 -61 -190 -193q-82 -152 -82 -383q0 -252 90 -369q103 -134 231 -141 q19 -1 37 -1q188 0 307 113q105 99 132 279l-368 -4h-2q-126 0 -126 111q0 95 145 97l511 8h2q86 0 86 -84q0 -7 -1 -15q-30 -381 -224 -557q-175 -160 -465 -160h-31q-239 7 -385 199q-147 192 -146 500z" />
<glyph unicode="H" horiz-adv-x="1573" d="M159 57l33 1368q2 86 94 88q104 0 102 -93l-14 -580h865l15 584q2 86 92 88q104 0 102 -93l-31 -1364q-1 -101 -105 -101h-4q-88 2 -88 99q0 3 14 578h-865l-13 -575q-2 -102 -108 -102h-2q-87 2 -87 97v6z" />
<glyph unicode="I" horiz-adv-x="1119" d="M67 71q0 94 132 94h3h213l29 1122h-237q-126 0 -126 112q0 95 135 95h729q123 0 123 -111q0 -96 -129 -96h-300l-28 -1122h320q123 0 123 -111q0 -96 -129 -96h-732q-126 0 -126 113z" />
<glyph unicode="J" horiz-adv-x="1362" d="M100 400q6 88 104 89q97 -1 97 -94q0 -255 276 -255q171 0 171 157v1004h-294q-126 0 -126 107q0 90 135 90h729q123 0 123 -106q0 -91 -126 -91h-3h-234v-998q0 -362 -339 -362q-16 0 -33 1q-482 23 -482 410q0 23 2 48z" />
<glyph unicode="K" horiz-adv-x="1251" d="M213 47l33 1385q2 87 94 89q104 0 102 -94l-14 -584l572 611q42 46 84 46q36 0 70 -34q38 -37 38 -74q0 -36 -36 -73l-601 -620l627 -526q55 -46 55 -87q0 -29 -27 -56q-31 -31 -69 -31q-44 0 -95 42l-624 517l-12 -513q-2 -102 -106 -102h-4q-87 2 -87 98v6z" />
<glyph unicode="L" horiz-adv-x="1128" d="M105 61l33 1385q2 87 94 89q104 0 102 -95l-30 -1278l682 15h4q95 0 95 -103q0 -104 -96 -105l-776 -13h-21h-2q-85 0 -85 98v7z" />
<glyph unicode="M" horiz-adv-x="1808" d="M120 177l276 1178q32 135 124 149q11 2 21 2q76 0 99 -96l244 -1027l299 977q50 163 148 163h4q92 -2 127 -170l258 -1250q7 -31 7 -56q0 -90 -85 -100q-9 -1 -17 -1q-101 0 -132 161l-176 906l-293 -857q-60 -175 -145 -175h-7q-92 6 -130 163l-214 856l-210 -935 q-25 -114 -87 -114q-24 0 -53 17q-68 38 -68 130q0 36 10 79z" />
<glyph unicode="N" horiz-adv-x="1632" d="M130 60l34 1355q2 85 92 87h3q50 0 76 -29l991 -1142l28 1115q2 85 93 87q104 0 102 -93l-31 -1351q-2 -100 -102 -100h-8q-45 2 -73 34l-985 1122l-23 -1087q-2 -100 -105 -100h-4q-88 2 -88 96v6z" />
<glyph unicode="O" horiz-adv-x="1635" d="M115 573q0 397 261 701q206 238 555 238h12q606 -7 606 -631q0 -405 -243 -696q-206 -248 -519 -248q-326 0 -528 223q-144 159 -144 413zM325 575q0 -182 111 -297q130 -135 351 -135q214 0 336 147q221 265 225 588v12q0 396 -393 423q-19 1 -38 1q-199 0 -349 -144 q-243 -234 -243 -595z" />
<glyph unicode="P" horiz-adv-x="1066" d="M94 60l34 1370q2 88 93 88q23 0 41 -4q92 8 165 8q53 0 97 -4q349 -35 446 -286q34 -89 34 -175q0 -160 -118 -309q-107 -133 -527 -156q-30 -2 -55 1l-12 -535q-2 -102 -106 -102h-4q-90 2 -88 104zM308 782q69 -7 128 -7q243 0 314 122q48 83 48 161q0 61 -30 119 q-81 150 -302 150h-6q-59 -1 -140 -10z" />
<glyph unicode="Q" horiz-adv-x="1795" d="M152 587q0 388 261 685q206 233 555 233h12q606 -7 606 -617q0 -381 -243 -681q-17 -21 -36 -39l158 -150q62 -59 62 -107q0 -29 -23 -54q-34 -36 -73 -36q-46 0 -101 50l-186 172q-143 -78 -320 -78q-323 0 -528 221q-144 155 -144 401zM362 589q0 -178 111 -291 q130 -132 351 -132q88 0 160 25l-146 134q-54 49 -54 94t54 85q22 16 48 16q53 0 124 -68l149 -143l1 1q221 259 225 575v12q0 387 -393 413q-20 1 -39 1q-199 0 -348 -141q-243 -231 -243 -581z" />
<glyph unicode="R" horiz-adv-x="1287" d="M130 49l34 1375q2 88 93 88q23 0 41 -4q61 6 125 6q58 0 118 -5q361 -27 465 -291q37 -94 37 -182q0 -163 -127 -304q-65 -72 -245 -116l449 -418q54 -51 54 -93q0 -48 -69 -85q-19 -10 -40 -10q-61 0 -143 82l-494 490q-16 -1 -33 -2q-30 -2 -55 1l-12 -534 q-2 -102 -106 -102h-4q-90 2 -88 104zM344 770q64 -7 119 -7q242 0 330 128q55 80 55 159q0 65 -38 129q-79 133 -314 135q-70 2 -140 3z" />
<glyph unicode="S" horiz-adv-x="1420" d="M148 219q9 66 60 81q10 3 21 3q51 0 121 -62q66 -59 162 -82q80 -18 151 -18q45 0 87 7q192 34 260 100q104 100 104 207q0 30 -8 61q-38 140 -394 140h-30h-15q-357 0 -425 274q-12 48 -12 96q0 108 62 212q67 113 239 196q133 64 285 65q13 0 26 -1q147 -6 251 -51 q146 -64 149 -126v-5q0 -47 -54 -74q-12 -6 -30 -6q-38 0 -104 26q-126 49 -226 49q-11 0 -22 -1q-166 -10 -256 -80q-95 -74 -104 -164q-2 -17 -2 -33q0 -150 146 -171q61 -9 302 -17q215 -7 315 -110q118 -121 117 -270v-21q-14 -248 -261 -391q-164 -95 -408 -96h-7 q-175 0 -292 49q-80 33 -136 82q-73 65 -73 120q0 6 1 11z" />
<glyph unicode="T" horiz-adv-x="1392" d="M117 1412q0 88 135 88h1080q132 0 132 -101q0 -89 -132 -89l-421 -1l-30 -1259q-2 -100 -105 -100h-4q-90 2 -88 102l31 1256q-236 -1 -472 -1q-126 0 -126 105z" />
<glyph unicode="U" horiz-adv-x="1509" d="M-587 1999zM160 762l3 537q1 199 102 199q100 -1 99 -174l-3 -547v-12q0 -626 402 -626h9q386 6 399 626l12 567q3 153 99 153h3q105 -2 105 -159v-15l-15 -567q-21 -784 -607 -784h-1q-607 1 -607 789v13z" />
<glyph unicode="V" horiz-adv-x="1331" d="M171 1260q-25 84 -25 139q0 113 100 113q72 0 93 -70l314 -1118l315 1118q20 70 92 70q100 0 100 -113q0 -56 -24 -139l-330 -1117q-47 -159 -125 -184q-14 -5 -28 -5l-28 5q-78 29 -124 184z" />
<glyph unicode="W" horiz-adv-x="2129" d="M165 1263q-25 85 -25 141q0 114 100 115q72 0 93 -72l314 -1132l315 1132q20 71 92 72q76 0 96 -73l314 -1132l314 1132q22 71 94 72q99 0 99 -114q0 -57 -25 -142l-330 -1131q-48 -164 -124 -186q-14 -4 -28 -4l-28 4q-79 31 -124 186l-256 879l-256 -878 q-48 -164 -125 -186q-14 -4 -28 -4l-28 4q-77 23 -124 186z" />
<glyph unicode="X" horiz-adv-x="1482" d="M122 113l491 642l-455 589q-29 38 -29 70q0 47 62 84q21 12 43 12q65 0 143 -102l367 -481l368 481q78 102 143 102q22 0 43 -12q62 -36 62 -84q0 -33 -29 -70l-455 -589l491 -642q27 -35 27 -65q0 -36 -39 -66q-42 -32 -78 -32q-40 0 -72 40l-461 596l-460 -596 q-32 -41 -72 -41q-36 0 -78 33q-39 29 -39 66q0 30 27 65z" />
<glyph unicode="Y" horiz-adv-x="1301" d="M46 1358q-19 30 -19 57q0 43 49 76q31 21 59 21q50 0 91 -66l454 -735l353 730q34 70 86 70q24 0 52 -15q60 -32 60 -80q0 -21 -12 -46l-624 -1323q-44 -94 -112 -94q-29 0 -62 17q-41 20 -41 71q0 50 38 129l159 330z" />
<glyph unicode="Z" horiz-adv-x="1420" d="M92 59q0 57 41 106l934 1120l-853 5q-122 1 -122 105q0 111 116 111l1051 -4q123 0 123 -111q0 -68 -69 -149l-911 -1073l857 -3q123 0 123 -111q0 -107 -122 -107h-2l-1044 6q-122 1 -122 105z" />
<glyph unicode="[" horiz-adv-x="771" d="M175 -287l12 1680q1 122 99 123l292 2q86 1 86 -99q0 -95 -109 -95l-178 -1l-21 -1548q127 1 254 3q91 1 91 -100q0 -93 -109 -93q-8 0 -318 1q-100 1 -99 127z" />
<glyph unicode="\" horiz-adv-x="1126" d="M137 1509q-30 65 39 100q75 38 106 -27l727 -1542q39 -82 -43 -118q-83 -37 -120 46z" />
<glyph unicode="]" horiz-adv-x="771" d="M178 -322q0 101 91 100q127 -1 254 -3l-21 1548l-178 1q-109 0 -109 95q0 100 86 99l292 -2q98 0 99 -123l12 -1680q1 -125 -99 -127q-316 -5 -318 -3q-109 -1 -109 95z" />
<glyph unicode="^" horiz-adv-x="1190" d="M226 1164q-48 52 22 129l277 306q44 49 87 48q43 1 88 -48l278 -306q70 -77 20 -129q-76 -80 -146 -3l-240 262l-238 -262q-70 -77 -148 3z" />
<glyph unicode="_" horiz-adv-x="1284" d="M-35 -160h1358v-185h-1358v185z" />
<glyph unicode="`" horiz-adv-x="1139" d="M173 1510q-61 67 14 126q74 60 131 -11l208 -260q81 -102 28 -155q-56 -56 -144 40z" />
<glyph unicode="a" horiz-adv-x="1048" d="M52 424v9q0 307 206 475q169 139 349 139q76 0 153 -25q19 16 50 16q18 0 40 -5q101 -23 101 -116q0 -18 -4 -39q-23 -125 -28 -426v-30q0 -216 54 -310q37 -64 37 -104q0 -52 -61 -64q-21 -4 -38 -4q-90 0 -107 110q-207 -105 -300 -106h-2q-447 0 -450 480zM247 443 q3 -306 210 -320q15 -1 30 -1q70 0 133 23q36 13 125 86q-16 189 -16 326q0 175 26 266q-68 43 -140 43q-31 0 -63 -8q-74 -18 -118 -51q-178 -129 -187 -364z" />
<glyph unicode="b" horiz-adv-x="1215" d="M138 66l34 1451q2 93 92 93q104 0 102 -99l-11 -551q26 17 56 34q90 51 210 51q216 0 363 -171q139 -162 139 -400q0 -23 -1 -47q-11 -202 -156 -345q-136 -131 -306 -132h-3q-172 0 -323 100q-8 -93 -104 -93h-4q-90 2 -88 109zM340 271q172 -128 292 -128q14 0 28 2 q135 18 201 105q80 108 83 225v15q0 162 -86 255q-73 80 -179 106q-32 8 -64 8q-132 0 -266 -130z" />
<glyph unicode="c" horiz-adv-x="1052" d="M95 443q0 246 109 403q132 191 336 206q26 2 51 1q89 0 166 -24q121 -41 161 -103q29 -45 29 -80q0 -39 -36 -65q-15 -11 -35 -11q-43 0 -109 49q-76 56 -165 56q-48 0 -100 -16q-83 -26 -150 -122q-76 -110 -79 -252v-10q0 -128 78 -235q74 -99 206 -104h16 q127 0 238 75q34 23 63 23q46 0 81 -58q9 -16 9 -33q0 -44 -61 -98q-109 -93 -341 -93h-5q-186 1 -309 120q-153 148 -153 371z" />
<glyph unicode="d" horiz-adv-x="1203" d="M99 427q-1 15 -1 30q0 246 139 417t363 171q120 0 210 -51q47 -27 86 -54l14 577q2 91 92 93q104 0 102 -99l-31 -1447q-1 -107 -105 -107h-4q-80 2 -87 86q-146 -93 -312 -93h-4q-173 1 -306 132q-148 148 -156 345zM277 475q0 -3 -1 -5q0 -111 84 -220q68 -90 201 -105 q14 -2 29 -2q129 0 290 126q11 208 11 441q-144 149 -285 149q-32 0 -64 -8q-126 -31 -182 -100q-79 -99 -83 -276z" />
<glyph unicode="e" horiz-adv-x="1122" d="M89 473q0 206 112 367q140 201 362 215q23 1 45 1q199 0 316 -115q118 -115 118 -261v-12q-4 -123 -111 -138l-672 -97q5 -113 102 -198q111 -98 249 -98h3q204 2 274 80q67 75 110 84q10 2 18 2q34 0 50 -32t16 -62q0 -59 -60 -112q-158 -140 -413 -140h-7 q-191 2 -334 120q-178 146 -178 396zM281 598l588 86q-15 87 -91 136q-86 55 -184 55h-3q-138 0 -238 -123q-44 -55 -72 -154z" />
<glyph unicode="f" horiz-adv-x="1041" d="M205 959h156q9 387 103 522q77 111 293 118h24q171 0 171 -87q0 -8 -2 -18q-15 -86 -113 -86q-12 0 -24 1q-19 2 -36 2q-155 0 -196 -146q-26 -91 -26 -291v-15h229q133 0 139 -90v-11q0 -97 -126 -97h-246l-10 -707q-2 -107 -106 -107h-4q-90 2 -88 109l13 705h-163 q-107 0 -107 97q0 101 119 101z" />
<glyph unicode="g" horiz-adv-x="1087" d="M60 -410q15 69 77 69q16 0 36 -5q126 -30 226 -30q49 0 92 7q221 38 247 306l16 165q-72 -114 -269 -114q-37 0 -78 4q-345 33 -345 397q0 103 27 231q83 392 482 433q44 5 82 5q201 0 252 -123q10 0 23 -2q81 -14 81 -111q0 -12 -1 -25l-76 -862q-44 -503 -507 -503 q-32 0 -67 3q-181 13 -244 43q-57 27 -57 84q0 13 3 28zM268 473q-3 -33 -3 -62q0 -206 174 -221q19 -2 38 -2q187 0 263 168q19 34 54 244q13 74 13 107q0 8 -1 14q-5 127 -156 128q-129 0 -237 -67q-121 -75 -145 -309z" />
<glyph unicode="h" horiz-adv-x="1183" d="M147 66l33 1451q2 92 94 94q104 0 102 -100l-10 -592q125 116 333 116q371 -1 371 -446v-10l-4 -507q-1 -121 -96 -129q-7 -1 -14 -1q-93 0 -92 112l3 479v6q0 260 -160 273q-15 1 -29 1q-168 0 -312 -172l-22 -577q-4 -107 -106 -107h-4q-89 2 -87 109z" />
<glyph unicode="i" horiz-adv-x="574" d="M184 77l17 839q3 131 101 131h3q93 -2 93 -125v-5l-14 -832q-2 -135 -96 -135q-104 1 -104 120v7zM191 1376q0 32 16 60q17 29 43 47q28 18 62 18h4q34 0 63 -17q31 -18 47 -50q14 -27 14 -58v-10q-3 -36 -25 -65q-20 -26 -44 -37q-23 -12 -52 -12h-4h-6q-31 1 -57 17 q-27 16 -44 44q-17 29 -17 63z" />
<glyph unicode="j" horiz-adv-x="826" d="M-89 -214q0 69 58 85q25 7 46 7q90 0 116 -127q29 -138 154 -138q93 0 96 156l22 1170q2 110 98 110q103 0 101 -110l-17 -1170v-7q0 -365 -283 -365h-20q-232 10 -328 231q-43 98 -43 158zM405 1383q0 32 16 60q17 29 43 47q28 18 62 18h4q34 0 63 -17q31 -18 47 -50 q14 -27 14 -58v-10q-3 -36 -25 -65q-20 -26 -44 -37q-23 -12 -52 -12h-4h-6q-31 1 -57 17q-27 16 -44 44q-17 29 -17 63z" />
<glyph unicode="k" horiz-adv-x="1106" d="M165 66l33 1451q2 91 94 93q104 0 102 -99l-20 -885l458 420q62 56 110 56q35 0 62 -30q30 -35 30 -69q0 -42 -46 -83l-302 -273l344 -475q47 -65 47 -112q0 -35 -25 -60q-42 -41 -81 -41q-49 0 -93 64l-340 490l-170 -153l-6 -296q-2 -107 -106 -107h-4q-87 2 -87 102v7 z" />
<glyph unicode="l" horiz-adv-x="561" d="M174 66l34 1451q2 91 92 93q104 0 102 -99l-31 -1447q-1 -107 -105 -107h-4q-90 2 -88 109z" />
<glyph unicode="m" horiz-adv-x="1591" d="M115 74l23 927q2 93 94 93q104 0 102 -99l-1 -41q89 80 217 81h5q203 0 276 -147q101 147 304 147h3q372 -1 372 -440v-16l-8 -497q-2 -121 -96 -129q-8 -1 -16 -1q-92 0 -90 112l6 461v14q0 282 -154 286h-10q-175 0 -239 -167q-3 -3 -4 -61l-12 -501q-3 -121 -96 -129 q-7 -1 -14 -1q-86 0 -86 105v7l10 459v21q0 264 -148 269h-10q-165 0 -217 -202l-17 -553q-3 -107 -103 -107h-4q-87 2 -87 102v7z" />
<glyph unicode="n" horiz-adv-x="1072" d="M133 71l23 930q2 93 94 93q102 0 102 -94v-5q-1 -29 -2 -59q109 99 279 99q371 -1 371 -440v-16l-8 -500q-2 -121 -96 -129q-8 -1 -16 -1q-90 0 -90 106v6l12 474v22q0 254 -158 266q-8 1 -17 1q-132 0 -281 -150l-16 -605q-3 -107 -106 -107h-4q-87 2 -87 102v7z" />
<glyph unicode="o" horiz-adv-x="1077" d="M82 473q0 228 134 404q130 172 345 172h5q404 -3 404 -573q0 -246 -108 -374q-118 -151 -360 -151h-6q-178 1 -302 148q-112 133 -112 374zM278 455q0 -157 72 -235q74 -80 170 -80q109 0 184 80q80 86 80 276q0 349 -205 349h-5q-131 -3 -196 -91q-100 -136 -100 -299z " />
<glyph unicode="p" horiz-adv-x="1095" d="M124 -471l32 1447q2 107 105 107h4q52 -1 77 -58q48 37 216 37h18q178 -1 309 -143q130 -139 130 -330q0 -265 -117 -411q-132 -164 -326 -178q-28 -2 -53 -2q-129 0 -185 56q-1 1 -3 2l-12 -533q-2 -94 -93 -94q-104 0 -102 100zM337 290q90 -101 194 -101q7 0 15 1 q148 10 224 123q65 95 67 233v7q0 124 -75 218q-66 82 -194 99q-25 3 -48 3q-103 0 -171 -65z" />
<glyph unicode="q" horiz-adv-x="1065" d="M66 446q0 268 137 428q145 172 361 172q120 0 178 -36q17 73 101 73h5q90 -2 88 -109l-34 -1451q-2 -93 -93 -93q-104 0 -102 99l10 451q-41 -23 -175 -23h-11q-187 1 -319 134q-146 145 -146 355zM250 500v-7q0 -137 74 -227q82 -98 225 -107q11 -1 21 -1q93 0 152 58 l12 578q-52 61 -163 61q-16 0 -33 -1q-124 -8 -200 -111q-84 -115 -88 -243z" />
<glyph unicode="r" horiz-adv-x="984" d="M133 66l23 935q2 93 94 93q102 0 102 -99v-37q112 85 221 87h12q125 0 207 -41q129 -65 129 -133q0 -12 -4 -24q-27 -80 -82 -80q-33 0 -77 30q-65 44 -144 44q-30 0 -62 -6q-113 -22 -207 -115l-17 -656q-3 -107 -104 -107h-4q-87 2 -87 102v7z" />
<glyph unicode="s" horiz-adv-x="997" d="M42 126v10q0 58 42 86q24 16 51 16q36 0 77 -28q88 -60 180 -66q38 -3 71 -3q161 0 203 61q13 20 13 43q0 49 -57 110q-56 60 -254 87q-205 30 -236 158q-9 38 -9 76q0 63 25 128q43 115 127 175q99 72 229 84q28 3 55 2q112 0 201 -43q143 -70 157 -161q1 -10 1 -19 q0 -47 -38 -78q-17 -14 -39 -14q-52 0 -134 79q-54 52 -156 52h-15q-121 -6 -179 -74q-35 -40 -35 -83q0 -18 6 -36q18 -54 139 -67q95 -10 176 -48q110 -51 153 -103q88 -106 88 -215q0 -16 -2 -33q-16 -129 -140 -212q-100 -67 -266 -68h-11q-133 0 -217 24 q-54 15 -132 60q-70 40 -74 100z" />
<glyph unicode="t" horiz-adv-x="965" d="M63 942q0 101 95 101q115 0 231 1l11 473q2 93 92 93q102 0 102 -99q-2 -255 -9 -466l203 1h2q121 0 121 -100q0 -102 -117 -102h-214l-17 -780q-1 -107 -105 -107h-4q-90 2 -88 109l18 778h-235q-86 0 -86 98z" />
<glyph unicode="u" horiz-adv-x="1065" d="M108 439l4 491q2 120 96 129q7 1 14 1q92 0 90 -112l-2 -437v-12q0 -231 74 -283q51 -35 112 -35q63 0 136 37q130 66 135 230l12 505q3 108 107 108h2q90 -2 88 -110l-24 -934q-2 -93 -92 -93q-104 0 -102 99l1 59q-109 -99 -279 -99q-372 1 -372 446v10z" />
<glyph unicode="v" horiz-adv-x="996" d="M82 884q-17 45 -17 79q0 60 54 83q25 10 46 10q64 0 99 -95l252 -701l253 701q35 95 99 95q21 0 46 -10q54 -23 54 -83q0 -34 -17 -79l-315 -820q-42 -109 -118 -109q-78 0 -121 109z" />
<glyph unicode="w" horiz-adv-x="1401" d="M86 905q-5 26 -5 47q0 82 73 93q8 1 15 1q75 0 97 -131l117 -694l222 694q42 131 110 131q80 0 102 -131l117 -694l222 694q42 131 108 131q5 0 11 -1q74 -11 74 -77q0 -27 -13 -63l-289 -833q-42 -122 -126 -122q-103 0 -126 122l-106 549l-193 -549q-43 -122 -126 -122 q-103 0 -126 122z" />
<glyph unicode="x" horiz-adv-x="1209" d="M120 1027q28 22 58 22q51 0 108 -65l306 -352l306 352q57 66 108 66q30 0 58 -23q40 -32 40 -70q0 -39 -42 -85l-344 -380l317 -345q55 -59 55 -106q0 -38 -35 -68q-26 -23 -56 -23q-50 0 -110 67l-297 332l-297 -332q-60 -67 -110 -67q-29 0 -56 23q-35 31 -35 68 q0 47 55 106l322 343l-349 382q-42 46 -42 85q0 38 40 70z" />
<glyph unicode="y" horiz-adv-x="1066" d="M24 861q-27 50 -27 87q0 51 51 78q28 15 52 15q60 0 104 -84l335 -637l274 631q38 88 101 88q22 0 46 -10q63 -27 63 -86q0 -32 -18 -73l-571 -1317q-56 -131 -125 -131q-16 0 -32 7q-63 26 -63 94q0 45 27 108l199 460z" />
<glyph unicode="z" horiz-adv-x="1102" d="M128 31q-1 3 -1 7q0 36 55 104l561 706h-475q-111 0 -111 103v7q3 89 118 89h666q77 0 101 -77q3 -9 3 -19q0 -38 -44 -93l-568 -719h469q111 0 111 -91q0 -94 -118 -94h-666q-88 0 -101 77z" />
<glyph unicode="{" horiz-adv-x="750" d="M4 568q-4 61 96 118q111 64 111 112l-3 426q-3 396 342 396q145 0 144 -83q0 -115 -159 -103q-143 10 -141 -216l3 -423q1 -105 -135 -227q136 -123 135 -228l-3 -321q-2 -218 142 -216q142 2 142 -86q0 -100 -128 -100q-346 0 -342 396l3 324q0 48 -111 112 q-100 59 -96 119z" />
<glyph unicode="|" horiz-adv-x="863" d="M354 1638q0 76 90 77q86 1 86 -77l2 -1885q0 -114 -88 -114q-84 1 -85 115z" />
<glyph unicode="}" horiz-adv-x="750" d="M7 1537q-1 83 144 83q345 0 342 -396l-3 -426q0 -48 111 -112q100 -58 96 -118q4 -61 -96 -119q-111 -64 -111 -112l3 -324q4 -396 -342 -396q-126 0 -128 100q-2 88 143 86q143 -2 141 216l-3 321q-1 104 135 228q-136 123 -135 227l3 423q2 226 -141 216 q-158 -12 -159 103z" />
<glyph unicode="~" horiz-adv-x="1224" d="M111 648q35 118 135 203q101 85 205 84q136 -1 198 -113q79 -138 184 -142q80 -3 127 139q31 94 98 91q91 -3 85 -138q-5 -114 -100 -202q-80 -73 -200 -74q-161 -1 -246 128q-102 154 -168 132q-76 -24 -156 -180q-43 -84 -122 -49q-67 30 -40 121z" />
<glyph unicode="&#xa2;" horiz-adv-x="1276" d="M125 874q0 198 105 353q128 189 314 231l2 170q1 111 90 112q80 0 79 -111q-1 -76 -1 -152q72 -1 121 -21q130 -56 168 -88q103 -85 57 -152q-55 -77 -143 -14q-134 96 -182 101l-22 2l-7 -840q74 11 130 46q137 85 173 90q113 14 91 -112q-12 -51 -191 -145 q-103 -54 -205 -66l-1 -118q-1 -129 -81 -127q-94 1 -93 129q1 62 2 123q-182 36 -311 190q-95 113 -95 399zM293 842q0 -164 62 -244q76 -99 178 -127q4 404 9 809q-105 -52 -165 -149q-84 -138 -84 -289z" />
<glyph unicode="&#xa3;" horiz-adv-x="1625" d="M41 803q3 90 104 91q82 1 165 1q-2 15 -3 29q-20 271 140 483q142 188 376 201q332 18 459 -156q82 -112 48 -168q-44 -72 -106 -55q-30 8 -86 105q-63 110 -294 100q-299 -11 -354 -399q-8 -54 -1 -138l554 7q105 1 105 -90q0 -86 -99 -87q-268 -3 -537 -6 q19 -111 53 -253q34 -144 -34 -325q29 4 49 3q92 -7 242 -72q109 -47 226 -44q132 4 190 56q29 25 48 144q14 79 94 70q88 -10 80 -104q-13 -169 -108 -246q-129 -106 -314 -100q-128 4 -230 50q-163 73 -289 66q-52 -3 -127 -41q-144 -73 -178 7q-22 52 10 89q10 15 29 32 q196 174 123 487q-23 99 -39 180q-99 -1 -197 -2q-101 -1 -99 85z" />
<glyph unicode="&#xa5;" horiz-adv-x="1302" d="M148 1344q-36 63 30 99q64 35 102 -27l376 -634l376 634q38 62 102 27q66 -36 30 -99l-373 -644h149q106 0 112 -79q6 -86 -100 -86h-212v-63h200q106 0 112 -79q6 -86 -100 -86h-212v-272q0 -90 -76 -90q-84 -1 -84 89v273h-192q-110 0 -108 80q2 85 112 85h188v63h-192 q-110 0 -108 80q2 85 112 85h129z" />
<glyph unicode="&#xa8;" horiz-adv-x="1139" d="M222 1274q0 96 118 96q123 0 123 -93q0 -91 -125 -91q-116 0 -116 88zM727 1274q0 96 118 96q123 0 123 -93q0 -91 -125 -91q-116 0 -116 88z" />
<glyph unicode="&#xa9;" horiz-adv-x="1629" d="M99 923v30q9 191 100 338q98 157 253 247q154 88 341 91h12q171 0 328 -80q163 -84 263 -234q98 -150 114 -331q3 -30 2 -61q0 -152 -59 -284q-45 -97 -104 -171q-55 -70 -150 -132q-171 -115 -377 -120h-16q-189 0 -366 102q-90 52 -156 126q-70 80 -112 165 q-73 148 -73 314zM286 930q0 -131 61 -246q70 -128 187 -201q114 -72 264 -75q5 0 10 -1q137 0 256 67q124 69 195 192q71 122 71 264q0 139 -69 259q-72 125 -189 193q-121 70 -263 70h-1q-134 0 -257 -67q-124 -68 -193 -185q-69 -118 -72 -257v-13zM456 911q0 153 70 253 q75 108 205 142q119 32 207 -6q122 -51 165 -111q47 -66 0 -123q-51 -60 -157 28q-86 72 -174 42q-98 -33 -116 -96q-22 -76 -21 -116q3 -55 39 -104q62 -85 142 -93q68 -5 171 73q83 62 132 -16q37 -59 -60 -141q-109 -94 -242 -87q-204 10 -287 144q-74 121 -74 211z" />
<glyph unicode="&#xab;" horiz-adv-x="1183" d="M20 605q1 48 49 90l382 332q86 75 148 -3q52 -66 -35 -140l-313 -266l325 -270q67 -56 5 -126q-54 -61 -122 -6l-383 309q-56 45 -56 80zM475 605q1 48 49 90l382 332q86 75 148 -3q52 -66 -35 -140l-313 -266l325 -270q67 -56 5 -126q-54 -61 -122 -6l-383 309 q-56 45 -56 80z" />
<glyph unicode="&#xad;" horiz-adv-x="853" d="M112 543q0 77 72 77l480 2q94 0 94 -76q0 -78 -89 -78l-491 1q-66 0 -66 74z" />
<glyph unicode="&#xae;" horiz-adv-x="1629" d="M99 923v30q9 191 100 338q98 157 253 247q154 88 341 91h12q171 0 328 -80q163 -84 263 -234q98 -150 114 -331q3 -30 2 -61q0 -152 -59 -284q-45 -97 -104 -171q-55 -70 -150 -132q-171 -115 -377 -120h-16q-189 0 -366 102q-90 52 -156 126q-70 80 -112 165 q-73 148 -73 314zM286 930q0 -131 61 -246q70 -128 187 -201q114 -72 264 -75q5 0 10 -1q137 0 256 67q124 69 195 192q71 122 71 264q0 139 -69 259q-72 125 -189 193q-121 70 -263 70h-1q-134 0 -257 -67q-124 -68 -193 -185q-69 -118 -72 -257v-13zM568 648l33 602 q4 79 92 93q173 27 264 -39q95 -70 107 -174q8 -72 -3 -116q-27 -99 -145 -134l123 -168q81 -110 0 -156q-65 -36 -141 81l-148 228q-1 -2 -4 1l-12 -220q-6 -109 -79 -107q-93 2 -87 109zM750 992q73 -7 103 4q45 17 48 93q3 78 -57 84l-81 10z" />
<glyph unicode="&#xb4;" horiz-adv-x="1139" d="M247 1210q-54 53 28 155l208 260q57 71 131 11q75 -59 14 -126l-237 -260q-87 -96 -144 -40z" />
<glyph unicode="&#xb8;" horiz-adv-x="1139" d="M368 -285q4 36 62 42q24 2 91 -28q69 -31 125 -18q62 15 62 80q2 86 -100 138q-48 25 -106 42q-72 19 -50 102q10 39 66 41q126 5 252 -114q154 -143 66 -337q-46 -101 -210 -108q-106 -5 -206 57q-60 37 -52 103z" />
<glyph unicode="&#xbb;" horiz-adv-x="1183" d="M47 1052q62 78 148 3l382 -332q48 -42 49 -90q0 -35 -56 -80l-383 -309q-68 -55 -122 6q-63 71 5 126l325 270l-313 266q-87 74 -35 140zM500 1052q62 78 148 3l382 -332q48 -42 49 -90q0 -35 -56 -80l-383 -309q-68 -55 -122 6q-63 71 5 126l325 270l-313 266 q-87 74 -35 140z" />
<glyph unicode="&#x2c6;" horiz-adv-x="1190" d="M226 1220q-48 52 22 129l277 306q44 49 87 48q43 1 88 -48l278 -306q70 -77 20 -129q-76 -80 -146 -3l-240 262l-238 -262q-70 -77 -148 3z" />
<glyph unicode="&#x2da;" horiz-adv-x="1139" d="M250 1470q0 47 12 92q31 112 121 183q91 72 208 75h9q99 0 184 -52q89 -54 133 -148q34 -72 34 -151q0 -23 -3 -46q-15 -110 -81 -182q-40 -47 -95 -78t-119 -41q-26 -4 -51 -4q-102 0 -188 54q-98 62 -140 170q-24 61 -24 128zM394 1468q0 -8 1 -16q4 -59 37 -102 q32 -42 67 -61q37 -21 88 -24h10q44 0 85 18q39 18 68 51q40 45 48 105q2 14 2 29q0 45 -18 85q-25 55 -77 87q-50 31 -108 31h-3q-58 -1 -106 -31q-47 -30 -72 -81q-22 -43 -22 -91z" />
<glyph unicode="&#x2dc;" horiz-adv-x="1139" d="M188 1310q31 107 119 183q89 77 180 76q120 -1 175 -102q69 -124 162 -128q70 -3 112 125q27 85 86 82q80 -3 75 -124q-4 -103 -88 -182q-71 -66 -176 -67q-142 0 -217 116q-90 138 -148 119q-67 -22 -137 -163q-38 -75 -108 -44q-59 27 -35 109z" />
<glyph unicode="&#x401;" horiz-adv-x="1279" d="M165 63l33 1353q2 85 94 86q21 0 37 -3q11 2 23 2l694 4q141 1 144 -115q3 -92 -138 -92q-331 -2 -661 -4l-9 -358l553 3q141 1 144 -114q3 -91 -138 -93l-563 -3l-14 -562l620 3q141 1 144 -114q3 -92 -138 -93l-700 -4q-12 0 -22 2h-16q-90 2 -87 102zM350 1728 q0 96 118 96q123 0 123 -93q0 -91 -125 -91q-116 0 -116 88zM855 1728q0 96 118 96q123 0 123 -93q0 -91 -125 -91q-116 0 -116 88z" />
<glyph unicode="&#x402;" horiz-adv-x="1741" d="M42 1412q0 88 135 88h1080q130 0 132 -98q2 -92 -132 -92l-421 -1l-30 -1259q-2 -102 -109 -100q-90 2 -88 102l31 1256q-236 -1 -472 -1q-126 0 -126 105zM815 771l6 225q280 73 468 28q250 -60 335 -367q69 -251 -62 -579q-98 -245 -289 -336q-129 -61 -184 26 q-47 75 62 134q128 71 167 134q173 275 99 612q-42 192 -312 192q-125 0 -290 -69z" />
<glyph unicode="&#x403;" horiz-adv-x="1262" d="M188 1395q-4 107 88 109h14h6l792 -13q96 -2 96 -110q0 -110 -99 -108l-698 16l61 -1193q5 -99 -102 -99q-88 2 -93 93zM554 1658q-54 53 28 155l208 260q57 71 131 11q75 -59 14 -126l-237 -260q-87 -96 -144 -40z" />
<glyph unicode="&#x404;" horiz-adv-x="1234" d="M77 660q0 361 134 547q196 270 414 304q208 32 375 -50q127 -64 131 -120q4 -71 -35 -108q-71 -64 -146 -14q-69 46 -158 66q-133 30 -247 -43q-95 -62 -168 -184q-57 -96 -74 -240l517 21q105 4 111 -89q6 -94 -99 -99l-535 -26q11 -179 93 -303q76 -113 203 -118 q181 -8 279 53q142 89 198 78q97 -18 82 -150q-8 -74 -201 -151q-159 -64 -343 -58q-240 7 -385.5 194.5t-145.5 489.5z" />
<glyph unicode="&#x405;" horiz-adv-x="1420" d="M148 219q9 66 60 81q57 16 142 -59q66 -59 162 -82q130 -30 238 -11q192 34 260 100q134 129 96 268q-40 146 -424 140q-371 -6 -440 274q-39 158 50 308q67 113 239 196q144 70 311 64q147 -6 251 -51q146 -64 149 -126q3 -51 -54 -79q-37 -18 -134 20q-140 54 -248 48 q-166 -10 -256 -80q-95 -74 -104 -164q-17 -181 144 -204q61 -9 302 -17q215 -7 315 -110q126 -130 117 -291q-14 -248 -261 -391q-164 -95 -408 -96q-180 -1 -299 49q-80 33 -136 82q-80 71 -72 131z" />
<glyph unicode="&#x406;" horiz-adv-x="1119" d="M67 71q0 95 135 94h213l29 1122h-237q-126 0 -126 112q0 95 135 95h729q121 0 123 -108q2 -99 -129 -99h-300l-28 -1122h320q121 0 123 -108q2 -99 -129 -99h-732q-126 0 -126 113z" />
<glyph unicode="&#x407;" horiz-adv-x="1119" d="M67 71q0 95 135 94h213l29 1122h-237q-126 0 -126 112q0 95 135 95h729q121 0 123 -108q2 -99 -129 -99h-300l-28 -1122h320q121 0 123 -108q2 -99 -129 -99h-732q-126 0 -126 113zM213 1722q0 96 118 96q123 0 123 -93q0 -91 -125 -91q-116 0 -116 88zM718 1722 q0 96 118 96q123 0 123 -93q0 -91 -125 -91q-116 0 -116 88z" />
<glyph unicode="&#x408;" horiz-adv-x="1362" d="M100 400q6 88 104 89q97 -1 97 -94q0 -255 276 -255q171 0 171 157v1004h-294q-126 0 -126 107q0 90 135 90h729q121 0 123 -103q2 -95 -129 -94h-234v-998q0 -379 -372 -361q-511 24 -480 458z" />
<glyph unicode="&#x409;" horiz-adv-x="2048" d="M22 81q-4 98 111 96q148 -2 156 291l26 912q0 15 2 29v13q1 99 123 99h659q145 0 141 -117q0 -4 -1 -9q1 -12 1 -24q-4 -213 -7 -425q425 10 547 -67q206 -129 195 -417q-12 -294 -228 -417q-128 -73 -606 -57q-7 0 -14 1q-5 -1 -10 -1q-42 -1 -69 23q-21 15 -26 38 q-18 43 -16 116l29 1158h-527l-18 -846q-10 -458 -297 -495q-166 -21 -171 99zM1219 182q320 -3 402 31q149 63 159 252q12 210 -186 273q-74 23 -365 7z" />
<glyph unicode="&#x40a;" horiz-adv-x="2001" d="M48 165l30 1209q3 130 102 129q104 -2 102 -132l-8 -429h701l11 432q3 130 102 129q104 -2 102 -132q-4 -213 -7 -425q391 5 515 -74q222 -139 219 -410q-3 -289 -228 -417q-128 -73 -606 -57h-9h-7q-29 -1 -50 10q-56 19 -54 71v8q-9 37 -7 88q7 290 14 579h-699 l-10 -573q-3 -180 -102 -183q-115 -3 -111 177zM1169 182q313 -3 394 31q149 63 159 252q12 210 -186 273q-73 23 -357 8z" />
<glyph unicode="&#x40b;" horiz-adv-x="1734" d="M42 1412q0 88 135 88h1080q130 0 132 -98q2 -92 -132 -92l-421 -1l-30 -1259q-2 -102 -109 -100q-90 2 -88 102l31 1256q-236 -1 -472 -1q-126 0 -126 105zM813 769l5 226q94 79 307 85q277 9 393 -240q73 -157 63 -387q-15 -324 -15 -327q-4 -172 -111 -165 q-97 6 -84 171q36 465 -6 603q-31 100 -126 126q-112 32 -216 0q-173 -51 -210 -92z" />
<glyph unicode="&#x40c;" horiz-adv-x="1297" d="M168 1446q0 90 101 90q104 0 104 -90q-1 -245 -3 -489q315 5 372 186q115 371 288 357q176 -14 150 -99q-17 -57 -78 -54q-89 5 -225 -333q-44 -111 -197 -169q310 -170 518 -677q52 -128 -51 -168q-80 -31 -129 66q-353 695 -649 691l-4 -667q-1 -105 -96 -105 q-100 0 -100 105zM489 1679q-54 53 28 155l208 260q57 71 131 11q75 -59 14 -126l-237 -260q-87 -96 -144 -40z" />
<glyph unicode="&#x40e;" horiz-adv-x="1301" d="M54 1354q-60 99 21 147q91 54 150 -45l463 -773l323 734q61 139 162 93q89 -41 27 -180l-432 -966q-179 -400 -564 -402q-93 0 -99 81q-9 117 84 117q269 -1 387 267l19 42q-14 17 -28 39zM257 1876q-60 151 29 168q90 17 111 -93q29 -157 263 -163q214 -5 264 145 q45 137 116 112q76 -27 36 -144q-90 -260 -420 -258q-308 2 -399 233z" />
<glyph unicode="&#x40f;" horiz-adv-x="1494" d="M112 1434q0 105 108 102q105 -3 105 -108v-1236l819 -1q0 621 -1 1243q0 105 108 102q105 -3 105 -108v-1299q5 -118 -67 -137q-29 -13 -74 -13h-421v-153q-18 -106 -91 -105q-104 2 -104 104q0 77 -1 154h-351q-36 0 -59 14q-75 22 -75 139z" />
<glyph unicode="&#x410;" horiz-adv-x="1498" d="M152 122l445 1241q60 166 146 166q85 0 145 -166l446 -1241q49 -137 -50 -166q-95 -28 -144 110l-157 435h-480l-157 -435q-48 -137 -144 -110q-98 29 -50 166zM576 704l333 2l-166 461z" />
<glyph unicode="&#x411;" horiz-adv-x="1238" d="M177 77l4 1330q0 107 91 109q12 0 22 -1l700 6q114 1 117 -96q3 -98 -111 -99q-311 -3 -623 -7l-2 -370q6 1 56 1q468 6 587 -140q216 -266 27 -642q-68 -142 -393 -168q-261 -21 -343 -11q-19 -5 -42 -5q-91 0 -90 93zM372 199q91 -3 151 -4q296 0 357 90q93 135 24 331 q-62 177 -530 135z" />
<glyph unicode="&#x412;" horiz-adv-x="1291" d="M196 43l33 1392q2 93 93 93q23 0 41 -5q52 10 243 -8q371 -36 464 -301q79 -227 -106 -439q-21 -24 -51 -44q67 -20 95 -41q262 -196 157 -480q-64 -168 -329 -233q-273 -67 -535 -42q-8 -1 -18 -1q-90 2 -87 109zM394 124q103 -8 198 3q112 14 237 59q140 51 159 153 q22 125 -96 204q-91 60 -249 75q-148 13 -238 5zM409 820q338 -37 423 89q97 145 36 267q-73 145 -307 152q-70 2 -140 3z" />
<glyph unicode="&#x413;" horiz-adv-x="1262" d="M188 1395q-4 107 88 109h14h6l792 -13q96 -2 96 -110q0 -110 -99 -108l-698 16l61 -1193q5 -99 -102 -99q-88 2 -93 93z" />
<glyph unicode="&#x414;" horiz-adv-x="1573" d="M94 89q2 104 105 104h16q275 531 197 1196q-6 57 17 89q10 22 43 31q21 8 48 9q21 1 38 -3q348 4 697 9q16 4 36 4q102 2 102 -94q-1 -622 -3 -1243q97 -9 99 -99q0 -13 -2 -24q3 -20 3 -45v-248q-9 -99 -92 -97q-100 2 -101 88l-2 234h-1003v-225q-9 -99 -92 -97 q-100 2 -101 88l-2 279v14q-3 14 -3 30zM435 193l754 -1q1 564 3 1128l-559 -6q11 -668 -198 -1121z" />
<glyph unicode="&#x415;" horiz-adv-x="1279" d="M165 63l33 1353q2 85 94 86q21 0 37 -3q11 2 23 2l694 4q141 1 144 -115q3 -92 -138 -92q-331 -2 -661 -4l-9 -358l553 3q141 1 144 -114q3 -91 -138 -93l-563 -3l-14 -562l620 3q141 1 144 -114q3 -92 -138 -93l-700 -4q-12 0 -22 2h-16q-90 2 -87 102z" />
<glyph unicode="&#x416;" horiz-adv-x="1760" d="M46 168q209 510 481 679q-116 58 -160 167q-138 338 -225 333q-61 -3 -78 54q-26 85 150 99q173 14 288 -357q53 -170 261 -185v488q0 90 101 90q104 0 104 -90l-3 -489q225 8 281 186q115 371 288 357q176 -14 150 -99q-17 -57 -78 -54q-87 5 -225 -333 q-45 -109 -160 -167q272 -169 481 -679q52 -128 -51 -168q-80 -31 -129 66q-338 677 -558 690l-4 -666q-1 -105 -96 -105q-100 0 -100 105v663q-215 -42 -538 -687q-49 -97 -129 -66q-103 40 -51 168z" />
<glyph unicode="&#x417;" horiz-adv-x="1231" d="M70 174q-10 114 84 114q57 0 180 -78q105 -66 330 -42t246 227q25 249 -286 299q-163 14 -162 92q0 68 60 84q147 40 245 68q141 42 127 202q-15 168 -245 180q-142 8 -204 -35q-121 -84 -190 -76q-70 8 -74 78q-4 65 117 144q137 91 328 79q272 -17 375 -153 q185 -242 49 -444q-52 -75 -172 -121q52 -10 117 -60q144 -111 107 -412q-37 -296 -382 -353q-311 -51 -500 57q-145 83 -150 150z" />
<glyph unicode="&#x418;" horiz-adv-x="1531" d="M133 114q-1 -85 88 -87q57 -1 80 29l884 1142l-19 -1115q-1 -85 90 -87q104 0 106 93l25 1351q2 104 -106 100q-50 -2 -74 -34l-877 -1122l22 1087q2 102 -105 100q-91 -2 -92 -102z" />
<glyph unicode="&#x419;" horiz-adv-x="1531" d="M133 114q-1 -85 88 -87q57 -1 80 29l884 1142l-19 -1115q-1 -85 90 -87q104 0 106 93l25 1351q2 104 -106 100q-50 -2 -74 -34l-877 -1122l22 1087q2 102 -105 100q-91 -2 -92 -102zM350 1935q-60 151 29 168q90 17 111 -93q29 -157 263 -163q214 -5 264 145 q45 137 116 112q76 -27 36 -144q-90 -260 -420 -258q-308 2 -399 233z" />
<glyph unicode="&#x41a;" horiz-adv-x="1297" d="M168 1446q0 90 101 90q104 0 104 -90q-1 -245 -3 -489q315 5 372 186q115 371 288 357q176 -14 150 -99q-17 -57 -78 -54q-89 5 -225 -333q-44 -111 -197 -169q310 -170 518 -677q52 -128 -51 -168q-80 -31 -129 66q-353 695 -649 691l-4 -667q-1 -105 -96 -105 q-100 0 -100 105z" />
<glyph unicode="&#x41b;" horiz-adv-x="1513" d="M28 60q-18 116 117 120q134 4 132 293l-5 941q-1 105 108 102q12 0 22 -2l777 1h14q14 1 29 1q105 -3 105 -108l4 -1285q0 -143 -102 -141q-109 1 -110 144l-5 1177h-629l4 -833q2 -480 -325 -488q-124 -3 -136 78z" />
<glyph unicode="&#x41c;" horiz-adv-x="1808" d="M120 177l276 1178q32 135 124 149q94 14 120 -94l244 -1027l299 977q51 166 152 163q92 -2 127 -170l258 -1250q30 -143 -78 -156q-115 -14 -149 160l-176 906l-293 -857q-62 -182 -152 -175q-92 6 -130 163l-214 856l-210 -935q-34 -157 -140 -97q-94 53 -58 209z" />
<glyph unicode="&#x41d;" horiz-adv-x="1573" d="M159 57l33 1368q2 86 94 88q104 0 102 -93l-14 -580h865l15 584q2 86 92 88q104 0 102 -93l-31 -1364q-1 -103 -109 -101q-90 2 -88 103l14 574h-865l-13 -575q-2 -103 -110 -102q-90 2 -87 103z" />
<glyph unicode="&#x41e;" horiz-adv-x="1635" d="M115 573q0 397 261 701q209 242 567 238q607 -7 606 -633q-1 -404 -243 -694q-206 -248 -519 -248q-326 0 -528 223q-144 159 -144 413zM325 575q0 -182 111 -297q130 -135 351 -135q214 0 336 147q221 265 225 588q6 408 -393 435q-223 15 -387 -143 q-243 -234 -243 -595z" />
<glyph unicode="&#x41f;" horiz-adv-x="1860" d="M106 1464q-1 105 116 105h1399q134 0 135 -101q2 -106 -132 -106h-67q1 -646 3 -1293q0 -105 -102 -108q-98 -3 -99 102l-9 1299h-791q1 -646 3 -1293q0 -105 -102 -108q-98 -3 -99 102l-9 1299h-129q-117 0 -117 102z" />
<glyph unicode="&#x420;" horiz-adv-x="1066" d="M94 60l34 1370q2 88 93 88q23 0 41 -4q157 14 262 4q349 -35 446 -286q98 -255 -84 -484q-107 -133 -527 -156q-30 -2 -55 1l-12 -535q-2 -104 -110 -102q-90 2 -88 104zM308 782q354 -37 442 115q86 149 18 280q-82 152 -308 150q-59 -1 -140 -10z" />
<glyph unicode="&#x421;" horiz-adv-x="1234" d="M77 649q0 369 134 560q196 276 414 311q208 33 375 -52q127 -65 131 -122q4 -73 -35 -111q-71 -66 -146 -14q-69 47 -158 68q-133 30 -247 -45q-95 -63 -168 -188q-82 -141 -82 -383q0 -223 95 -369q76 -115 203 -121q181 -9 279 55q142 91 198 79q97 -18 82 -153 q-8 -76 -201 -155q-159 -66 -343 -59q-242 8 -386 198q-146 192 -145 501z" />
<glyph unicode="&#x422;" horiz-adv-x="1392" d="M117 1412q0 88 135 88h1080q130 0 132 -98q2 -92 -132 -92l-421 -1l-30 -1259q-2 -102 -109 -100q-90 2 -88 102l31 1256q-236 -1 -472 -1q-126 0 -126 105z" />
<glyph unicode="&#x423;" horiz-adv-x="1301" d="M54 1354q-60 99 21 147q91 54 150 -45l463 -773l323 734q61 139 162 93q89 -41 27 -180l-432 -966q-179 -400 -564 -402q-93 0 -99 81q-9 117 84 117q269 -1 387 267l19 42q-14 17 -28 39z" />
<glyph unicode="&#x424;" horiz-adv-x="1307" d="M94 714q0 447 504 488q1 46 2 91h-175q-121 0 -121 84q0 111 109 111h579q99 0 101 -113q1 -82 -98 -82h-197l-2 -90q477 -34 477 -438q0 -450 -500 -481l-3 -109h222q99 0 101 -113q1 -82 -98 -82h-570q-121 0 -121 84q0 111 109 111h162l2 112q-483 41 -483 427z M280 708q0 -210 301 -245l13 557q-314 -37 -314 -312zM777 459q313 24 313 294q0 239 -298 269q-7 -282 -15 -563z" />
<glyph unicode="&#x425;" horiz-adv-x="1482" d="M122 113l491 642l-455 589q-72 93 33 154q81 47 186 -90l367 -481l368 481q105 137 186 90q105 -61 33 -154l-455 -589l491 -642q59 -77 -12 -131q-90 -68 -150 8l-461 596l-460 -596q-60 -77 -150 -8q-71 54 -12 131z" />
<glyph unicode="&#x426;" horiz-adv-x="1584" d="M112 1434q0 105 108 102q105 -3 105 -108v-1236q409 0 819 -1l-1 1243q0 105 108 102q105 -3 105 -108v-1237q137 -4 155 -71q5 -19 6 -35q5 -16 5 -37v-222q-18 -106 -91 -105q-104 2 -104 104q0 77 -1 154h-1065q-30 0 -51 10q-97 10 -97 143z" />
<glyph unicode="&#x427;" horiz-adv-x="1264" d="M114 923l2 491q0 120 96 129q106 9 106 -111v-437q1 -291 255 -297q276 -6 348 250q5 244 10 489q1 109 109 108q90 -2 88 -110l-28 -1372q-2 -93 -94 -93q-104 0 -102 99q5 258 10 517q-129 -120 -345 -120q-457 2 -455 457z" />
<glyph unicode="&#x428;" horiz-adv-x="1856" d="M112 1434q0 105 108 102q105 -3 105 -108v-1236h492l-1 1242q0 105 108 102q105 -3 105 -108v-1237h487q0 621 -1 1243q0 105 108 102q105 -3 105 -108v-1299q2 -43 -7 -73q-9 -77 -121 -77h-1353q-36 0 -59 14q-75 22 -75 139z" />
<glyph unicode="&#x429;" horiz-adv-x="1960" d="M112 1434q0 105 108 102q105 -3 105 -108v-1236h492q0 621 -1 1242q0 105 108 102q105 -3 105 -108v-1236q243 0 487 -1l-1 1243q0 105 108 102q105 -3 105 -108v-1237h29q128 0 138 -99q1 -12 1 -23q1 -10 1 -21v-222q-18 -106 -91 -105q-104 2 -104 104q0 77 -1 154 h-1454q-36 0 -59 14q-75 22 -75 139z" />
<glyph unicode="&#x42a;" horiz-adv-x="1556" d="M43 1410q-5 104 82 105l447 6q48 1 76 -16q48 -23 47 -96l-3 -460q6 1 56 1q468 6 587 -140q216 -266 27 -642q-68 -142 -393 -168q-261 -21 -343 -11q-19 -5 -42 -5q-91 0 -90 93l4 1248l-326 -6q-125 -2 -129 91zM689 199q91 -3 151 -4q296 0 357 90q93 135 24 331 q-62 177 -530 135z" />
<glyph unicode="&#x42b;" horiz-adv-x="2202" d="M177 77l4 1330q0 107 91 109q107 2 106 -107l-3 -460q6 1 56 1q468 6 587 -140q216 -266 27 -642q-68 -142 -393 -168q-261 -21 -343 -11q-19 -5 -42 -5q-91 0 -90 93zM372 199q91 -3 151 -4q296 0 357 90q93 135 24 331q-62 177 -530 135zM1110 71q0 95 135 94h213 l29 1122h-237q-126 0 -126 112q0 95 135 95h729q121 0 123 -108q2 -99 -129 -99h-300l-28 -1122h320q121 0 123 -108q2 -99 -129 -99h-732q-126 0 -126 113z" />
<glyph unicode="&#x42c;" horiz-adv-x="1238" d="M177 77l4 1330q0 107 91 109q107 2 106 -107l-3 -460q6 1 56 1q468 6 587 -140q216 -266 27 -642q-68 -142 -393 -168q-261 -21 -343 -11q-19 -5 -42 -5q-91 0 -90 93zM372 199q91 -3 151 -4q296 0 357 90q93 135 24 331q-62 177 -530 135z" />
<glyph unicode="&#x42d;" horiz-adv-x="1340" d="M130 185q8 -74 201 -151q159 -64 343 -58q240 7 385.5 194.5t145.5 489.5q0 361 -134 547q-196 270 -414 304q-208 32 -375 -50q-127 -64 -131 -120q-4 -71 35 -108q71 -64 146 -14q69 46 158 66q133 30 247 -43q95 -62 168 -184q57 -96 74 -240l-517 21q-105 4 -111 -89 q-6 -94 99 -99l535 -26q-11 -179 -93 -303q-76 -113 -203 -118q-181 -8 -279 53q-142 89 -198 78q-97 -18 -82 -150z" />
<glyph unicode="&#x42e;" horiz-adv-x="2315" d="M159 24l33 1451q2 91 94 93q104 0 102 -99l-14 -615h456q61 228 225 420q209 242 567 238q607 -7 606 -633q-1 -404 -243 -694q-206 -248 -519 -248q-317 0 -528 233q-144 159 -144 403q0 30 1 59h-426l-13 -610q-2 -109 -110 -107q-90 2 -87 109zM1004 575 q0 -182 111 -297q130 -135 351 -135q214 0 336 147q221 265 225 588q6 408 -393 435q-225 15 -387 -144q-243 -234 -243 -594z" />
<glyph unicode="&#x42f;" horiz-adv-x="1287" d="M186 186q-116 -113 15 -186q72 -40 183 75l494 514q16 -1 33 -2q30 -2 55 2l12 -561q2 -109 110 -107q90 2 88 109l-34 1451q-2 91 -93 93q-23 0 -41 -5q-86 16 -243 -8q-347 -52 -465 -305.5t107 -514.5q67 -77 228 -117zM485 1175q116 198 325 182q74 -5 140 -10 l12 -561q-340 -38 -451 135q-92 142 -26 254z" />
<glyph unicode="&#x430;" horiz-adv-x="1048" d="M52 424q-3 313 206 484q240 197 502 114q29 25 90 11q120 -27 97 -155q-23 -125 -28 -426q-4 -240 54 -340q85 -146 -24 -168q-125 -26 -145 106q-207 -105 -300 -106q-449 -1 -452 480zM247 443q3 -306 210 -320q87 -6 163 22q36 13 125 86q-36 430 10 592 q-97 61 -203 35q-74 -18 -118 -51q-178 -129 -187 -364z" />
<glyph unicode="&#x431;" horiz-adv-x="1077" d="M68 434q-9 372 152 737q141 324 421 313q156 -6 204 36q84 71 150 6q64 -64 15 -141q-49 -79 -153 -81q-234 -4 -312 -42q-162 -78 -219 -323q67 95 269 92q380 -4 380 -555q0 -527 -446 -531q-451 -4 -461 489zM272 467q0 -346 252 -346q258 0 259 346q-1 363 -213 363 q-298 0 -298 -363z" />
<glyph unicode="&#x432;" horiz-adv-x="1032" d="M131 50l27 926q3 77 78 77q19 0 34 -4q69 13 201 -7q352 -51 389 -218q38 -170 -82 -274q-19 -16 -42 -30q44 -14 69 -32q195 -140 125 -326q-40 -105 -285 -166q-225 -55 -424 -36q-8 -1 -18 -1q-75 2 -72 91zM296 108q99 6 272 37q156 29 186 57q83 84 -53 177 q-35 24 -284 50q-17 2 -32 4q-17 -1 -35 -2q-25 -1 -46 1zM308 597q278 -29 354 47q80 80 8 160q-52 58 -236 69l-116 2z" />
<glyph unicode="&#x433;" horiz-adv-x="963" d="M138 922q-4 114 94 124q25 3 43 -3q273 5 547 9q112 2 116 -88q4 -110 -108 -110l-498 2l38 -788q6 -110 -96 -114q-98 -2 -102 108z" />
<glyph unicode="&#x434;" horiz-adv-x="1214" d="M34 91q2 104 105 104h1q182 232 178 730q0 43 13 71q3 39 56 51q17 6 39 7q17 1 31 -2l427 7q16 5 37 5q102 2 102 -94l-3 -776h21q121 0 123 -100q0 -13 -2 -24q3 -20 3 -45v-189q0 -99 -92 -97q-100 2 -101 88q-1 88 -2 175h-738v-166q0 -99 -92 -97q-100 2 -101 88 l-2 220v14q-3 14 -3 30zM351 195l468 -1l3 662l-297 -6h-11q-15 -389 -163 -655z" />
<glyph unicode="&#x435;" horiz-adv-x="1122" d="M89 473q0 206 112 367q140 201 362 215q231 14 361 -114q123 -120 118 -273q-4 -123 -111 -138l-672 -97q5 -113 102 -198q112 -99 252 -98q204 2 274 80q67 75 110 84q48 10 68 -30q47 -93 -44 -174q-160 -142 -420 -140q-191 2 -334 120q-178 146 -178 396zM281 598 l588 86q-15 87 -91 136q-88 56 -187 55q-138 0 -238 -123q-44 -55 -72 -154z" />
<glyph unicode="&#x436;" horiz-adv-x="1398" d="M74 111q142 333 330 456q-59 40 -87 103q-104 231 -164 229q-54 -1 -65 66q-11 62 114 71q127 9 213 -251q32 -98 185 -106q-1 159 -2 317q0 63 85 63q89 0 88 -63q-1 -158 -2 -317q149 10 181 106q85 259 212 251q125 -9 114 -71q-11 -67 -65 -66q-59 2 -163 -229 q-29 -64 -88 -104q188 -123 330 -455q40 -93 -46 -120q-72 -22 -109 46q-234 448 -367 460l-2 -443q-1 -73 -86 -73q-76 0 -76 73q-1 221 -3 442q-135 -6 -372 -459q-36 -68 -109 -46q-86 27 -46 120z" />
<glyph unicode="&#x437;" horiz-adv-x="900" d="M64 142q-2 -48 80 -106q191 -135 426 -72q227 62 242 252q12 152 -46 236q-48 70 -98 100q80 86 88 108q59 141 -28 254q-97 126 -268 134q-153 7 -272 -58q-91 -51 -85 -137q5 -61 65 -68q30 -4 145 67q65 39 164 19q121 -25 121 -105q0 -109 -136 -150 q-112 -34 -102 -112q7 -62 122 -70q149 -10 154 -148q4 -137 -136 -152q-156 -17 -230 44q-75 62 -120 60q-81 -4 -86 -96z" />
<glyph unicode="&#x438;" horiz-adv-x="1304" d="M100 943q-2 101 90 104q106 3 108 -98l21 -654l595 700q20 24 42 36q21 15 56 16q106 3 108 -98l28 -860q4 -137 -96 -140q-104 -3 -108 134l-16 641l-621 -734q-8 -13 -18 -21q-3 -3 -5 -6q-42 -51 -94 -9q-65 21 -68 129z" />
<glyph unicode="&#x439;" horiz-adv-x="1304" d="M100 943q-2 101 90 104q106 3 108 -98l21 -654l595 700q20 24 42 36q21 15 56 16q106 3 108 -98l28 -860q4 -137 -96 -140q-104 -3 -108 134l-16 641l-621 -734q-8 -13 -18 -21q-3 -3 -5 -6q-42 -51 -94 -9q-65 21 -68 129zM207 1404q-60 151 29 168q90 17 111 -93 q29 -157 263 -163q214 -5 264 145q45 137 116 112q76 -27 36 -144q-90 -260 -420 -258q-308 2 -399 233z" />
<glyph unicode="&#x43a;" horiz-adv-x="1008" d="M148 996q0 63 85 63q89 0 88 -63l-2 -318q234 4 261 78q106 290 249 280q125 -9 114 -71q-14 -78 -48 -77q-75 2 -180 -234q-24 -53 -78 -91q157 -105 282 -341q105 -199 -8 -231q-91 -26 -157 105q-161 319 -338 389q-45 -7 -98 -11l-2 -420q-1 -73 -86 -73 q-76 0 -76 73z" />
<glyph unicode="&#x43b;" horiz-adv-x="1325" d="M28 42q-18 116 150 120q156 4 153 311l-5 487q-1 105 108 102q10 0 18 -2q289 0 579 1q10 0 20 -1q14 2 29 2q100 -3 99 -108l4 -849q1 -143 -102 -141q-94 1 -95 144l-4 758h-461l3 -396q4 -497 -360 -506q-124 -3 -136 78z" />
<glyph unicode="&#x43c;" horiz-adv-x="1504" d="M52 91l275 876q27 85 107 82q80 3 107 -82l201 -640l201 640q27 85 107 82q80 3 107 -82l275 -876q34 -108 -47 -133q-89 -28 -123 80l-212 670l-212 -670q-29 -91 -96 -85q-67 -5 -96 85l-212 670l-212 -670q-34 -108 -123 -80q-81 25 -47 133z" />
<glyph unicode="&#x43d;" horiz-adv-x="1146" d="M80 45l8 962q1 96 98 94q103 -2 102 -98l-6 -391l544 8l3 387q1 96 98 94q103 -2 102 -98l-14 -966q-1 -94 -110 -90q-85 3 -84 98l3 384l-544 -11q-3 -190 -6 -381q-1 -94 -110 -90q-85 3 -84 98z" />
<glyph unicode="&#x43e;" horiz-adv-x="1211" d="M82 473q0 228 134 404q132 174 350 172q405 -3 404 -576q-1 -244 -108 -371q-120 -153 -366 -151q-178 1 -302 148q-112 133 -112 374zM278 455q0 -157 72 -235q74 -80 170 -80q109 0 184 80q79 85 80 273q1 356 -210 352q-131 -3 -196 -91q-100 -136 -100 -299z" />
<glyph unicode="&#x43f;" horiz-adv-x="1325" d="M218 933q0 96 100 100h16h4h728h10h6q96 4 96 -92l4 -880q0 -106 -100 -106q-98 0 -98 106l-2 774h-568l4 -774q0 -106 -100 -106q-98 0 -98 106z" />
<glyph unicode="&#x440;" horiz-adv-x="1095" d="M124 -471l32 1447q2 109 109 107q52 -1 77 -58q50 39 234 37q178 -1 309 -143q130 -139 130 -325q1 -269 -117 -416q-132 -164 -326 -178q-171 -13 -238 54q-1 1 -3 2l-12 -533q-2 -94 -93 -94q-104 0 -102 100zM337 290q97 -108 209 -100q148 10 224 123q65 95 67 233 q2 129 -75 225q-66 82 -194 99q-136 18 -219 -62z" />
<glyph unicode="&#x441;" horiz-adv-x="1052" d="M95 443q0 246 109 403q132 191 336 206q119 9 217 -23q121 -41 161 -103q61 -96 -7 -145q-47 -34 -144 38q-117 87 -265 40q-83 -26 -150 -122q-76 -110 -79 -252q-3 -134 78 -245q74 -99 206 -104q136 -5 254 75q88 59 144 -35q33 -56 -52 -131q-110 -94 -346 -93 q-186 1 -309 120q-153 148 -153 371z" />
<glyph unicode="&#x442;" horiz-adv-x="965" d="M63 961q0 95 135 95h576q130 0 132 -105q2 -98 -132 -99q-92 0 -183 -1q-1 -404 -3 -807q0 -109 -109 -107q-88 2 -88 109l4 804l-206 -1q-126 -1 -126 112z" />
<glyph unicode="&#x443;" horiz-adv-x="1066" d="M24 861q-64 118 24 165q93 50 156 -69l335 -637l274 631q51 118 147 78q96 -41 45 -159l-571 -1317q-69 -160 -157 -124q-105 43 -36 202l199 460z" />
<glyph unicode="&#x444;" horiz-adv-x="1659" d="M84 569q9 201 164 345q126 117 285 113q108 -4 206 -61v10q0 109 107 107q90 -2 90 -109v-12q102 61 213 65q157 5 285 -113q155 -144 164 -345q12 -257 -128 -447q-100 -137 -312 -152q-112 -8 -221 37v-484q0 -91 -91 -93q-104 0 -104 99q0 238 -1 476 q-108 -43 -217 -35q-198 12 -312 152q-140 171 -128 447zM261 521q0 -156 77 -257q75 -96 201 -108q109 -9 202 74l-2 517q-77 80 -170 88q-129 11 -231 -97q-76 -80 -77 -217zM936 740l1 -505q95 -88 206 -79q126 12 201 108q77 100 77 257q-1 137 -77 217 q-102 108 -231 97q-97 -8 -177 -95z" />
<glyph unicode="&#x445;" horiz-adv-x="1209" d="M120 1027q76 60 166 -43l306 -352l306 352q90 104 166 43q81 -64 -2 -155l-344 -380l317 -345q98 -106 20 -174q-71 -62 -166 44l-297 332l-297 -332q-95 -106 -166 -44q-79 69 20 174l322 343l-349 382q-83 91 -2 155z" />
<glyph unicode="&#x446;" horiz-adv-x="1267" d="M177 960q0 105 106 102q102 -3 102 -108v-787l508 -1q0 397 -1 794q0 105 106 102q102 -3 102 -108v-793q82 -11 93 -50q3 -11 5 -21q6 -18 6 -42v-194q0 -107 -91 -105q-103 2 -104 104l-1 117h-731q-102 0 -96 111v5q-3 21 -3 46z" />
<glyph unicode="&#x447;" horiz-adv-x="1093" d="M80 957q-4 120 96 129q96 9 100 -111l8 -251q8 -241 204 -230q222 13 291 149q1 170 3 340q2 109 110 108q89 -2 87 -110l-9 -939q-2 -93 -94 -93q-104 0 -102 99q1 156 3 312q-96 -54 -243 -56q-438 -6 -446 350z" />
<glyph unicode="&#x448;" horiz-adv-x="1581" d="M118 960q0 105 106 102q102 -3 102 -108v-787h368l-1 793q0 105 106 102q102 -3 102 -108v-788h361q0 397 -1 794q0 105 106 102q102 -3 102 -108v-825q0 -37 -7 -65q4 -94 -123 -94h-1121q-102 0 -96 111v5q-3 21 -3 46z" />
<glyph unicode="&#x449;" horiz-adv-x="1624" d="M118 960q0 105 106 102q102 -3 102 -108v-787h368q0 397 -1 793q0 105 106 102q102 -3 102 -108v-788h361l-1 794q0 105 106 102q102 -3 102 -108v-789q112 -7 126 -54q11 -40 7 -69v-266q0 -107 -91 -105q-104 2 -104 104q0 98 -1 195h-1188q-102 0 -96 111v5 q-3 21 -3 46z" />
<glyph unicode="&#x44a;" horiz-adv-x="1272" d="M22 998q2 87 96 86l402 -4h3q6 1 13 1q98 2 97 -89l-8 -325q63 8 103 8q354 2 432 -136q114 -194 28 -358q-78 -152 -290 -181q-142 -20 -351 -9q-15 -4 -35 -4q-75 0 -73 77l18 841q-174 2 -347 5q-90 1 -88 88zM614 165q118 -2 182 0q230 12 232 158q4 123 -106 164 q-88 33 -299 9z" />
<glyph unicode="&#x44b;" horiz-adv-x="1619" d="M137 64l20 926q2 89 77 91q98 2 97 -89l-8 -325q63 8 103 8q354 2 432 -136q114 -194 28 -358q-78 -152 -290 -181q-142 -20 -351 -9q-15 -4 -35 -4q-75 0 -73 77zM312 165q118 -2 182 0q230 12 232 158q4 123 -106 164q-88 33 -299 9zM894 82q0 91 103 91h138 q2 346 5 692l-152 -1q-94 -1 -94 90t103 91h436q99 0 101 -93q2 -84 -101 -85l-98 -1q-1 -347 -3 -693h101q99 0 101 -93q2 -84 -101 -85l-445 -3q-94 -1 -94 90z" />
<glyph unicode="&#x44c;" horiz-adv-x="1007" d="M137 64l20 926q2 89 77 91q98 2 97 -89l-8 -325q63 8 103 8q354 2 432 -136q114 -194 28 -358q-78 -152 -290 -181q-142 -20 -351 -9q-15 -4 -35 -4q-75 0 -73 77zM312 165q118 -2 182 0q230 12 232 158q4 123 -106 164q-88 33 -299 9z" />
<glyph unicode="&#x44d;" horiz-adv-x="1051" d="M115 111q27 120 168 60q75 -32 228 -18q105 9 195 117q48 58 61 141l-304 6q-106 2 -105 81q2 103 108 101l298 -5q-13 100 -46 156q-45 77 -132 96q-149 33 -237 0q-126 -47 -180 -21q-60 28 -36 90q35 91 171 122q130 30 285 10q185 -23 285 -186q87 -141 87 -420 q0 -232 -152 -366q-112 -99 -295 -111q-180 -12 -297 21q-123 34 -102 126z" />
<glyph unicode="&#x44e;" horiz-adv-x="1848" d="M79 57l27 973q4 91 94 93q92 0 90 -99l-11 -438h415q26 172 156 321q165 184 424 182q489 -4 489 -590q-1 -222 -187 -418q-137 -141 -387 -141q-203 0 -365 167q-108 111 -130 295h-420l-10 -347q-4 -109 -98 -107q-91 2 -87 109zM925 480q0 -166 88 -247 q86 -80 196 -80q109 0 225 84q104 76 104 283q0 360 -254 355q-159 -3 -238 -96q-121 -143 -121 -299z" />
<glyph unicode="&#x44f;" horiz-adv-x="1035" d="M98 114q-114 -82 12 -147q52 -27 158 60l350 285q35 0 74 -2q26 -1 47 1l5 -262q1 -86 94 -85q77 2 75 86l-23 920q-2 73 -80 74q-20 0 -35 -4q-71 12 -209 -7q-333 -43 -430 -263q-85 -196 72 -342q69 -62 200 -89zM304 600q-36 76 50 174q72 81 238 86q132 3 133 4 l11 -396q-354 -32 -432 132z" />
<glyph unicode="&#x451;" horiz-adv-x="1122" d="M89 473q0 206 112 367q140 201 362 215q231 14 361 -114q123 -120 118 -273q-4 -123 -111 -138l-672 -97q5 -113 102 -198q112 -99 252 -98q204 2 274 80q67 75 110 84q48 10 68 -30q47 -93 -44 -174q-160 -142 -420 -140q-191 2 -334 120q-178 146 -178 396zM240 1266 q0 96 118 96q123 0 123 -93q0 -91 -125 -91q-116 0 -116 88zM281 598l588 86q-15 87 -91 136q-88 56 -187 55q-138 0 -238 -123q-44 -55 -72 -154zM745 1266q0 96 118 96q123 0 123 -93q0 -91 -125 -91q-116 0 -116 88z" />
<glyph unicode="&#x452;" horiz-adv-x="1147" d="M-68 1287q4 78 87 78l158 1q2 76 3 151q2 91 94 93q104 0 102 -99l-3 -145l369 2q81 0 81 -79q0 -75 -81 -76q-186 -3 -373 -5q-3 -137 -6 -275q111 103 287 102q376 -1 372 -456l-4 -491q-3 -558 -454 -487q-96 15 -92 117q4 100 171 84q176 -17 175 268l-2 437 q-1 293 -163 297q-231 6 -298 -237l-11 -503q-2 -109 -110 -107q-90 2 -87 109l26 1139l-162 -2q-83 -1 -79 84z" />
<glyph unicode="&#x453;" horiz-adv-x="963" d="M138 922q-4 114 94 124q25 3 43 -3q273 5 547 9q112 2 116 -88q4 -110 -108 -110l-498 2l38 -788q6 -110 -96 -114q-98 -2 -102 108zM360 1192q-54 53 28 155l208 260q57 71 131 11q75 -59 14 -126l-237 -260q-87 -96 -144 -40z" />
<glyph unicode="&#x454;" horiz-adv-x="1051" d="M79 441q0 279 87 420q100 163 285 186q154 20 285 -10q136 -31 171 -122q24 -62 -36 -90q-54 -26 -180 21q-88 33 -237 0q-87 -19 -132 -96q-33 -56 -46 -156l298 5q106 2 108 -101q1 -79 -105 -81l-304 -6q13 -83 61 -141q90 -108 195 -117q153 -14 228 18 q141 60 168 -60q21 -92 -102 -126q-117 -33 -297 -21q-183 12 -295 111q-152 134 -152 366z" />
<glyph unicode="&#x455;" horiz-adv-x="997" d="M42 126q-4 66 42 96q56 37 128 -12q88 -60 180 -66q224 -15 274 58q40 63 -44 153q-56 60 -254 87q-205 30 -236 158q-24 100 16 204q43 115 127 175q99 72 229 84q146 13 256 -41q143 -70 157 -161q9 -60 -37 -97q-57 -47 -173 65q-58 56 -171 52q-121 -6 -179 -74 q-49 -57 -29 -119q18 -54 139 -67q95 -10 176 -48q110 -51 153 -103q101 -122 86 -248q-16 -129 -140 -212q-100 -67 -266 -68q-140 -1 -228 24q-54 15 -132 60q-70 40 -74 100z" />
<glyph unicode="&#x456;" horiz-adv-x="574" d="M184 77l17 839q3 133 104 131q95 -2 93 -130l-14 -832q-2 -135 -96 -135q-107 1 -104 127zM191 1376q0 32 16 60q17 29 43 47q28 18 62 18h4q34 0 63 -17q31 -18 47 -50q14 -27 14 -58v-10q-3 -36 -25 -65q-20 -26 -44 -37q-25 -13 -56 -12h-6q-31 1 -57 17 q-27 16 -44 44q-17 29 -17 63z" />
<glyph unicode="&#x457;" horiz-adv-x="574" d="M-64 1259q0 96 118 96q123 0 123 -93q0 -91 -125 -91q-116 0 -116 88zM184 77l17 839q3 133 104 131q95 -2 93 -130l-14 -832q-2 -135 -96 -135q-107 1 -104 127zM441 1259q0 96 118 96q123 0 123 -93q0 -91 -125 -91q-116 0 -116 88z" />
<glyph unicode="&#x458;" horiz-adv-x="826" d="M-89 -214q0 69 58 85q25 7 46 7q90 0 116 -127q29 -138 154 -138q93 0 96 156l22 1170q2 110 98 110q103 0 101 -110l-17 -1170v-7q0 -365 -283 -365h-20q-232 10 -328 231q-43 98 -43 158zM405 1383q0 32 16 60q17 29 43 47q28 18 62 18h4q34 0 63 -17q31 -18 47 -50 q14 -27 14 -58v-10q-3 -36 -25 -65q-20 -26 -44 -37q-25 -13 -56 -12h-6q-31 1 -57 17q-27 16 -44 44q-17 29 -17 63z" />
<glyph unicode="&#x459;" horiz-adv-x="1822" d="M36 166q32 88 122 26q56 -40 144 -42q66 -2 72 132l28 672q6 128 86 128q22 0 39 -4h536q10 3 23 3q98 2 97 -89l-8 -325q63 8 103 8q354 2 432 -136q114 -194 28 -358q-78 -152 -290 -181q-142 -20 -351 -9q-15 -4 -35 -4q-75 0 -73 77l18 836q-207 -1 -413 -2l-22 -610 q-12 -320 -252 -324q-176 -4 -244 68q-64 66 -40 134zM1164 165q118 -2 182 0q230 12 232 158q4 123 -106 164q-88 33 -299 9z" />
<glyph unicode="&#x45a;" horiz-adv-x="1585" d="M93 64l20 926q2 89 77 91q98 2 97 -89l-7 -349l450 8l7 339q2 89 77 91q98 2 97 -89l-8 -325q63 8 103 8q354 2 432 -136q114 -194 28 -358q-78 -152 -290 -181q-142 -20 -351 -9q-15 -4 -35 -4q-75 0 -73 77q5 211 9 422q-225 -4 -449 -7l-9 -425q-1 -73 -102 -67 q-75 4 -73 77zM892 165q118 -2 182 0q230 12 232 158q4 123 -106 164q-88 33 -299 9z" />
<glyph unicode="&#x45b;" horiz-adv-x="1183" d="M-68 1287q4 78 87 78l158 1q2 76 3 151q2 91 94 93q104 0 102 -99l-3 -145l369 2q81 0 81 -79q0 -75 -81 -76q-186 -3 -373 -5q-3 -144 -6 -289q126 117 336 116q375 -1 371 -456l-2 -491q0 -120 -96 -129q-106 -9 -106 111v437q-1 293 -164 297q-273 6 -347 -246 l-11 -494q-2 -109 -110 -107q-90 2 -87 109l26 1139l-162 -2q-83 -1 -79 84z" />
<glyph unicode="&#x45c;" horiz-adv-x="1008" d="M148 996q0 63 85 63q89 0 88 -63l-2 -318q234 4 261 78q106 290 249 280q125 -9 114 -71q-14 -78 -48 -77q-75 2 -180 -234q-24 -53 -78 -91q157 -105 282 -341q105 -199 -8 -231q-91 -26 -157 105q-161 319 -338 389q-45 -7 -98 -11l-2 -420q-1 -73 -86 -73 q-76 0 -76 73zM333 1205q-54 53 28 155l208 260q57 71 131 11q75 -59 14 -126l-237 -260q-87 -96 -144 -40z" />
<glyph unicode="&#x45e;" horiz-adv-x="1066" d="M24 861q-64 118 24 165q93 50 156 -69l335 -637l274 631q51 118 147 78q96 -41 45 -159l-571 -1317q-69 -160 -157 -124q-105 43 -36 202l199 460zM100 1398q-60 151 29 168q90 17 111 -93q29 -157 263 -163q214 -5 264 145q45 137 116 112q76 -27 36 -144 q-90 -260 -420 -258q-308 2 -399 233z" />
<glyph unicode="&#x45f;" horiz-adv-x="1267" d="M138 978q0 105 108 102q99 -3 99 -108v-812l540 -1l-1 819q0 105 108 102q99 -3 99 -108v-875q0 -35 -8 -60q-7 -70 -121 -70h-251v-207q0 -107 -91 -105q-104 2 -104 104l-1 208h-242q-35 0 -57 13q-77 18 -77 120z" />
<glyph unicode="&#x490;" horiz-adv-x="1262" d="M188 1395q-4 107 88 109h14h6l675 -11q-8 97 -16 193q-7 85 104 87q91 1 98 -84l24 -272q3 -16 3 -36q0 -110 -99 -108l-698 16l61 -1193q5 -99 -102 -99q-88 2 -93 93z" />
<glyph unicode="&#x491;" horiz-adv-x="963" d="M138 934q-4 122 90 124h14h6l504 -11l-16 194q-8 91 86 98q92 7 100 -84l28 -304q2 -22 -4 -38q-13 -66 -97 -64l-510 11l32 -805q4 -99 -102 -99q-89 2 -93 93z" />
<glyph unicode="&#x2000;" horiz-adv-x="1066" />
<glyph unicode="&#x2001;" horiz-adv-x="2132" />
<glyph unicode="&#x2002;" horiz-adv-x="1066" />
<glyph unicode="&#x2003;" horiz-adv-x="2132" />
<glyph unicode="&#x2004;" horiz-adv-x="710" />
<glyph unicode="&#x2005;" horiz-adv-x="533" />
<glyph unicode="&#x2006;" horiz-adv-x="355" />
<glyph unicode="&#x2007;" horiz-adv-x="355" />
<glyph unicode="&#x2008;" horiz-adv-x="266" />
<glyph unicode="&#x2009;" horiz-adv-x="426" />
<glyph unicode="&#x200a;" horiz-adv-x="118" />
<glyph unicode="&#x2010;" horiz-adv-x="853" d="M112 543q0 77 72 77l480 2q94 0 94 -76q0 -78 -89 -78l-491 1q-66 0 -66 74z" />
<glyph unicode="&#x2011;" horiz-adv-x="853" d="M112 543q0 77 72 77l480 2q94 0 94 -76q0 -78 -89 -78l-491 1q-66 0 -66 74z" />
<glyph unicode="&#x2012;" horiz-adv-x="853" d="M112 543q0 77 72 77l480 2q94 0 94 -76q0 -78 -89 -78l-491 1q-66 0 -66 74z" />
<glyph unicode="&#x2013;" horiz-adv-x="904" d="M45 644q0 101 88 101l582 2q113 1 114 -99q0 -102 -108 -101h-597q-79 0 -79 97z" />
<glyph unicode="&#x2014;" horiz-adv-x="1808" d="M68 641q0 99 135 99l1372 3q135 0 136 -98q0 -101 -125 -101l-1401 1q-117 0 -117 96z" />
<glyph unicode="&#x2018;" horiz-adv-x="369" d="M68 1515q-14 89 81 97q95 9 103 -82l30 -331q12 -130 -63 -145q-78 -15 -98 113z" />
<glyph unicode="&#x2019;" horiz-adv-x="369" d="M65 1199l30 331q8 91 103 82q95 -8 81 -97l-53 -348q-20 -128 -98 -113q-74 15 -63 145z" />
<glyph unicode="&#x201a;" horiz-adv-x="612" d="M96 -63l134 240q48 87 136 26q76 -52 18 -132l-158 -216q-50 -70 -114 -30q-58 37 -16 112z" />
<glyph unicode="&#x201c;" horiz-adv-x="806" d="M93 1515q-14 89 81 97q95 9 103 -82l30 -331q12 -130 -63 -145q-78 -15 -98 113zM425 1515q-14 89 81 97q95 9 103 -82l30 -331q12 -130 -63 -145q-78 -15 -98 113z" />
<glyph unicode="&#x201d;" horiz-adv-x="806" d="M138 1199l30 331q8 91 103 82q95 -8 81 -97l-53 -348q-20 -128 -98 -113q-74 15 -63 145zM470 1199l30 331q8 91 103 82q95 -8 81 -97l-53 -348q-20 -128 -98 -113q-74 15 -63 145z" />
<glyph unicode="&#x201e;" horiz-adv-x="843" d="M96 -63l134 240q48 87 136 26q76 -52 18 -132l-158 -216q-50 -70 -114 -30q-58 37 -16 112zM444 -63l134 240q48 87 136 26q76 -52 18 -132l-158 -216q-50 -70 -114 -30q-58 37 -16 112z" />
<glyph unicode="&#x2026;" horiz-adv-x="1383" d="M170 41q0 29 13 54q15 26 37 42q24 16 53 16h3q29 0 54 -15q26 -16 40 -45q12 -24 12 -52v-9q-3 -32 -22 -59q-17 -23 -37 -33q-21 -12 -48 -11h-5q-26 1 -48 16q-23 14 -38 39q-14 26 -14 57zM589 41q0 29 13 54q15 26 37 42q24 16 53 16h3q29 0 54 -15q26 -16 40 -45 q12 -24 12 -52v-9q-3 -32 -22 -59q-17 -23 -37 -33q-21 -12 -48 -11h-5q-26 1 -48 16q-23 14 -38 39q-14 26 -14 57zM1035 41q0 29 13 54q15 26 37 42q24 16 53 16h3q29 0 54 -15q26 -16 40 -45q12 -24 12 -52v-9q-3 -32 -22 -59q-17 -23 -37 -33q-21 -12 -48 -11h-5 q-26 1 -48 16q-23 14 -38 39q-14 26 -14 57z" />
<glyph unicode="&#x202f;" horiz-adv-x="426" />
<glyph unicode="&#x2039;" horiz-adv-x="781" d="M20 605q1 48 49 90l382 332q86 75 148 -3q52 -66 -35 -140l-313 -266l325 -270q67 -56 5 -126q-54 -61 -122 -6l-383 309q-56 45 -56 80z" />
<glyph unicode="&#x203a;" horiz-adv-x="781" d="M137 1052q62 78 148 3l382 -332q48 -42 49 -90q0 -35 -56 -80l-383 -309q-68 -55 -122 6q-63 71 5 126l325 270l-313 266q-87 74 -35 140z" />
<glyph unicode="&#x205f;" horiz-adv-x="533" />
<glyph unicode="&#x20ac;" d="M-40 580q0 100 88 100l583 3q113 1 114 -99q0 -97 -109 -98l-596 -3q-79 0 -80 97zM-40 934q0 100 88 100l706 3q113 0 114 -99q0 -101 -109 -102l-719 1q-79 0 -80 97zM77 649q0 369 134 560q196 276 414 311q208 33 375 -52q127 -65 131 -122q4 -73 -35 -111 q-71 -66 -146 -14q-69 47 -158 68q-133 30 -247 -45q-95 -63 -168 -188q-82 -141 -82 -383q0 -223 95 -369q76 -115 203 -121q181 -9 279 55q142 91 198 79q97 -18 82 -153q-8 -76 -201 -155q-159 -66 -343 -59q-242 8 -386 198q-146 192 -145 501z" />
<glyph unicode="&#x2122;" horiz-adv-x="1808" d="M79 1504q1 84 73 84h684q89 0 93 -71q5 -82 -84 -82h-270l2 -491q0 -80 -78 -84q-80 -5 -81 75l-4 500h-271q-65 0 -64 69zM776 1000l224 531q24 56 81 60q66 4 83 -60l99 -350l147 350q24 56 81 60q66 4 83 -60l149 -531q27 -97 -36 -123q-84 -34 -111 63l-96 350 l-147 -350q-28 -68 -78 -73q-66 -7 -89 73l-96 350l-147 -350q-39 -93 -111 -63q-75 31 -36 123z" />
<glyph unicode="&#xe000;" horiz-adv-x="1050" d="M0 0v1050h1050v-1050h-1050z" />
</font>
</defs>
</svg>
